<?xml version="1.0" encoding="utf-8"?>
<svg xmlns="http://www.w3.org/2000/svg" version="1.1" width="518" height="518"
 viewBox="0 0 518 518" shape-rendering="crispEdges">
<style type="text/css">.st0{fill:#ff0000};.st1{fill:#ffff00};</style>
<rect x="0" y="0" width="518" height="518" fill="#ffff00"/>
<path class="st0" d="M56,56 h14 a0,0 0 0 1 0,0 v14 a0,0 0 0 1 -0,0 h-14 a0,0 0 0 1 -0,-0 v-11 a3,3 0 0 1 3,-3 z"/><path class="st0" d="M73 70 h-3 v3 c0 -1 1 -3 3 -3 z"/>

<path class="st0" d="M70,56 h14 a0,0 0 0 1 0,0 v14 a0,0 0 0 1 -0,0 h-14 a0,0 0 0 1 -0,-0 v-14 a0,0 0 0 1 0,-0 z"/>
<path class="st0" d="M84,56 h14 a0,0 0 0 1 0,0 v14 a0,0 0 0 1 -0,0 h-14 a0,0 0 0 1 -0,-0 v-14 a0,0 0 0 1 0,-0 z"/>
<path class="st0" d="M98,56 h14 a0,0 0 0 1 0,0 v14 a0,0 0 0 1 -0,0 h-14 a0,0 0 0 1 -0,-0 v-14 a0,0 0 0 1 0,-0 z"/>
<path class="st0" d="M112,56 h14 a0,0 0 0 1 0,0 v14 a0,0 0 0 1 -0,0 h-14 a0,0 0 0 1 -0,-0 v-14 a0,0 0 0 1 0,-0 z"/>
<path class="st0" d="M126,56 h14 a0,0 0 0 1 0,0 v14 a0,0 0 0 1 -0,0 h-14 a0,0 0 0 1 -0,-0 v-14 a0,0 0 0 1 0,-0 z"/>
<path class="st0" d="M140,56 h11 a3,3 0 0 1 3,3 v11 a0,0 0 0 1 -0,0 h-14 a0,0 0 0 1 -0,-0 v-14 a0,0 0 0 1 0,-0 z"/><path class="st0" d="M140 73 V70 h-3 c1 0 3 1 3 3z"/>

<path class="st0" d="M196,56 h11 a3,3 0 0 1 3,3 v8 a3,3 0 0 1 -3,3 h-8 a3,3 0 0 1 -3,-3 v-8 a3,3 0 0 1 3,-3 z"/>
<path class="st0" d="M238,56 h11 a3,3 0 0 1 3,3 v11 a0,0 0 0 1 -0,0 h-14 a0,0 0 0 1 -0,-0 v-11 a3,3 0 0 1 3,-3 z"/>
<path class="st0" d="M280,56 h14 a0,0 0 0 1 0,0 v14 a0,0 0 0 1 -0,0 h-11 a3,3 0 0 1 -3,-3 v-8 a3,3 0 0 1 3,-3 z"/>
<path class="st0" d="M294,56 h14 a0,0 0 0 1 0,0 v14 a0,0 0 0 1 -0,0 h-14 a0,0 0 0 1 -0,-0 v-14 a0,0 0 0 1 0,-0 z"/>
<path class="st0" d="M308,56 h14 a0,0 0 0 1 0,0 v14 a0,0 0 0 1 -0,0 h-14 a0,0 0 0 1 -0,-0 v-14 a0,0 0 0 1 0,-0 z"/><path class="st0" d="M325 70 h-3 v3 c0 -1 1 -3 3 -3 z"/>
<path class="st0" d="M308 73 V70 h-3 c1 0 3 1 3 3z"/>

<path class="st0" d="M322,56 h11 a3,3 0 0 1 3,3 v8 a3,3 0 0 1 -3,3 h-11 a0,0 0 0 1 -0,-0 v-14 a0,0 0 0 1 0,-0 z"/>
<path class="st0" d="M364,56 h14 a0,0 0 0 1 0,0 v14 a0,0 0 0 1 -0,0 h-14 a0,0 0 0 1 -0,-0 v-11 a3,3 0 0 1 3,-3 z"/><path class="st0" d="M381 70 h-3 v3 c0 -1 1 -3 3 -3 z"/>

<path class="st0" d="M378,56 h14 a0,0 0 0 1 0,0 v14 a0,0 0 0 1 -0,0 h-14 a0,0 0 0 1 -0,-0 v-14 a0,0 0 0 1 0,-0 z"/>
<path class="st0" d="M392,56 h14 a0,0 0 0 1 0,0 v14 a0,0 0 0 1 -0,0 h-14 a0,0 0 0 1 -0,-0 v-14 a0,0 0 0 1 0,-0 z"/>
<path class="st0" d="M406,56 h14 a0,0 0 0 1 0,0 v14 a0,0 0 0 1 -0,0 h-14 a0,0 0 0 1 -0,-0 v-14 a0,0 0 0 1 0,-0 z"/>
<path class="st0" d="M420,56 h14 a0,0 0 0 1 0,0 v14 a0,0 0 0 1 -0,0 h-14 a0,0 0 0 1 -0,-0 v-14 a0,0 0 0 1 0,-0 z"/>
<path class="st0" d="M434,56 h14 a0,0 0 0 1 0,0 v14 a0,0 0 0 1 -0,0 h-14 a0,0 0 0 1 -0,-0 v-14 a0,0 0 0 1 0,-0 z"/>
<path class="st0" d="M448,56 h11 a3,3 0 0 1 3,3 v11 a0,0 0 0 1 -0,0 h-14 a0,0 0 0 1 -0,-0 v-14 a0,0 0 0 1 0,-0 z"/><path class="st0" d="M448 73 V70 h-3 c1 0 3 1 3 3z"/>

<path class="st0" d="M56,70 h14 a0,0 0 0 1 0,0 v14 a0,0 0 0 1 -0,0 h-14 a0,0 0 0 1 -0,-0 v-14 a0,0 0 0 1 0,-0 z"/>
<path class="st0" d="M140,70 h14 a0,0 0 0 1 0,0 v14 a0,0 0 0 1 -0,0 h-14 a0,0 0 0 1 -0,-0 v-14 a0,0 0 0 1 0,-0 z"/>
<path class="st0" d="M182,70 h11 a3,3 0 0 1 3,3 v8 a3,3 0 0 1 -3,3 h-8 a3,3 0 0 1 -3,-3 v-8 a3,3 0 0 1 3,-3 z"/>
<path class="st0" d="M238,70 h14 a0,0 0 0 1 0,0 v14 a0,0 0 0 1 -0,0 h-14 a0,0 0 0 1 -0,-0 v-14 a0,0 0 0 1 0,-0 z"/><path class="st0" d="M255 70c-1 0 -3 -1 -3 -3 v3 h3 z"/>
<path class="st0" d="M255 84 h-3 v3 c0 -1 1 -3 3 -3 z"/>

<path class="st0" d="M252,70 h14 a0,0 0 0 1 0,0 v14 a0,0 0 0 1 -0,0 h-14 a0,0 0 0 1 -0,-0 v-14 a0,0 0 0 1 0,-0 z"/>
<path class="st0" d="M266,70 h11 a3,3 0 0 1 3,3 v8 a3,3 0 0 1 -3,3 h-11 a0,0 0 0 1 -0,-0 v-14 a0,0 0 0 1 0,-0 z"/>
<path class="st0" d="M308,70 h14 a0,0 0 0 1 0,0 v14 a0,0 0 0 1 -0,0 h-14 a0,0 0 0 1 -0,-0 v-14 a0,0 0 0 1 0,-0 z"/>
<path class="st0" d="M336,70 h11 a3,3 0 0 1 3,3 v11 a0,0 0 0 1 -0,0 h-14 a0,0 0 0 1 -0,-0 v-11 a3,3 0 0 1 3,-3 z"/>
<path class="st0" d="M364,70 h14 a0,0 0 0 1 0,0 v14 a0,0 0 0 1 -0,0 h-14 a0,0 0 0 1 -0,-0 v-14 a0,0 0 0 1 0,-0 z"/>
<path class="st0" d="M448,70 h14 a0,0 0 0 1 0,0 v14 a0,0 0 0 1 -0,0 h-14 a0,0 0 0 1 -0,-0 v-14 a0,0 0 0 1 0,-0 z"/>
<path class="st0" d="M56,84 h14 a0,0 0 0 1 0,0 v14 a0,0 0 0 1 -0,0 h-14 a0,0 0 0 1 -0,-0 v-14 a0,0 0 0 1 0,-0 z"/>
<path class="st0" d="M84,84 h14 a0,0 0 0 1 0,0 v14 a0,0 0 0 1 -0,0 h-14 a0,0 0 0 1 -0,-0 v-11 a3,3 0 0 1 3,-3 z"/><path class="st0" d="M101 98 h-3 v3 c0 -1 1 -3 3 -3 z"/>

<path class="st0" d="M98,84 h14 a0,0 0 0 1 0,0 v14 a0,0 0 0 1 -0,0 h-14 a0,0 0 0 1 -0,-0 v-14 a0,0 0 0 1 0,-0 z"/><path class="st0" d="M115 98 h-3 v3 c0 -1 1 -3 3 -3 z"/>
<path class="st0" d="M98 101 V98 h-3 c1 0 3 1 3 3z"/>

<path class="st0" d="M112,84 h11 a3,3 0 0 1 3,3 v11 a0,0 0 0 1 -0,0 h-14 a0,0 0 0 1 -0,-0 v-14 a0,0 0 0 1 0,-0 z"/><path class="st0" d="M112 101 V98 h-3 c1 0 3 1 3 3z"/>

<path class="st0" d="M140,84 h14 a0,0 0 0 1 0,0 v14 a0,0 0 0 1 -0,0 h-14 a0,0 0 0 1 -0,-0 v-14 a0,0 0 0 1 0,-0 z"/>
<path class="st0" d="M196,84 h14 a0,0 0 0 1 0,0 v14 a0,0 0 0 1 -0,0 h-11 a3,3 0 0 1 -3,-3 v-8 a3,3 0 0 1 3,-3 z"/>
<path class="st0" d="M210,84 h14 a0,0 0 0 1 0,0 v14 a0,0 0 0 1 -0,0 h-14 a0,0 0 0 1 -0,-0 v-14 a0,0 0 0 1 0,-0 z"/>
<path class="st0" d="M224,84 h14 a0,0 0 0 1 0,0 v14 a0,0 0 0 1 -0,0 h-14 a0,0 0 0 1 -0,-0 v-14 a0,0 0 0 1 0,-0 z"/><path class="st0" d="M241 98 h-3 v3 c0 -1 1 -3 3 -3 z"/>
<path class="st0" d="M224 101 V98 h-3 c1 0 3 1 3 3z"/>

<path class="st0" d="M238,84 h14 a0,0 0 0 1 0,0 v14 a0,0 0 0 1 -0,0 h-14 a0,0 0 0 1 -0,-0 v-14 a0,0 0 0 1 0,-0 z"/><path class="st0" d="M238 101 V98 h-3 c1 0 3 1 3 3z"/>
<path class="st0" d="M235 84c1 0 3-1 3-3v3h-3z"/>

<path class="st0" d="M280,84 h14 a0,0 0 0 1 0,0 v14 a0,0 0 0 1 -0,0 h-11 a3,3 0 0 1 -3,-3 v-8 a3,3 0 0 1 3,-3 z"/>
<path class="st0" d="M294,84 h14 a0,0 0 0 1 0,0 v14 a0,0 0 0 1 -0,0 h-14 a0,0 0 0 1 -0,-0 v-14 a0,0 0 0 1 0,-0 z"/>
<path class="st0" d="M308,84 h14 a0,0 0 0 1 0,0 v14 a0,0 0 0 1 -0,0 h-14 a0,0 0 0 1 -0,-0 v-14 a0,0 0 0 1 0,-0 z"/><path class="st0" d="M308 101 V98 h-3 c1 0 3 1 3 3z"/>
<path class="st0" d="M305 84c1 0 3-1 3-3v3h-3z"/>

<path class="st0" d="M336,84 h14 a0,0 0 0 1 0,0 v11 a3,3 0 0 1 -3,3 h-8 a3,3 0 0 1 -3,-3 v-11 a0,0 0 0 1 0,-0 z"/>
<path class="st0" d="M364,84 h14 a0,0 0 0 1 0,0 v14 a0,0 0 0 1 -0,0 h-14 a0,0 0 0 1 -0,-0 v-14 a0,0 0 0 1 0,-0 z"/>
<path class="st0" d="M392,84 h14 a0,0 0 0 1 0,0 v14 a0,0 0 0 1 -0,0 h-14 a0,0 0 0 1 -0,-0 v-11 a3,3 0 0 1 3,-3 z"/><path class="st0" d="M409 98 h-3 v3 c0 -1 1 -3 3 -3 z"/>

<path class="st0" d="M406,84 h14 a0,0 0 0 1 0,0 v14 a0,0 0 0 1 -0,0 h-14 a0,0 0 0 1 -0,-0 v-14 a0,0 0 0 1 0,-0 z"/><path class="st0" d="M423 98 h-3 v3 c0 -1 1 -3 3 -3 z"/>
<path class="st0" d="M406 101 V98 h-3 c1 0 3 1 3 3z"/>

<path class="st0" d="M420,84 h11 a3,3 0 0 1 3,3 v11 a0,0 0 0 1 -0,0 h-14 a0,0 0 0 1 -0,-0 v-14 a0,0 0 0 1 0,-0 z"/><path class="st0" d="M420 101 V98 h-3 c1 0 3 1 3 3z"/>

<path class="st0" d="M448,84 h14 a0,0 0 0 1 0,0 v14 a0,0 0 0 1 -0,0 h-14 a0,0 0 0 1 -0,-0 v-14 a0,0 0 0 1 0,-0 z"/>
<path class="st0" d="M56,98 h14 a0,0 0 0 1 0,0 v14 a0,0 0 0 1 -0,0 h-14 a0,0 0 0 1 -0,-0 v-14 a0,0 0 0 1 0,-0 z"/>
<path class="st0" d="M84,98 h14 a0,0 0 0 1 0,0 v14 a0,0 0 0 1 -0,0 h-14 a0,0 0 0 1 -0,-0 v-14 a0,0 0 0 1 0,-0 z"/><path class="st0" d="M101 98c-1 0 -3 -1 -3 -3 v3 h3 z"/>
<path class="st0" d="M101 112 h-3 v3 c0 -1 1 -3 3 -3 z"/>

<path class="st0" d="M98,98 h14 a0,0 0 0 1 0,0 v14 a0,0 0 0 1 -0,0 h-14 a0,0 0 0 1 -0,-0 v-14 a0,0 0 0 1 0,-0 z"/>
<path class="st0" d="M112,98 h14 a0,0 0 0 1 0,0 v14 a0,0 0 0 1 -0,0 h-14 a0,0 0 0 1 -0,-0 v-14 a0,0 0 0 1 0,-0 z"/><path class="st0" d="M112 115 V112 h-3 c1 0 3 1 3 3z"/>
<path class="st0" d="M109 98c1 0 3-1 3-3v3h-3z"/>

<path class="st0" d="M140,98 h14 a0,0 0 0 1 0,0 v14 a0,0 0 0 1 -0,0 h-14 a0,0 0 0 1 -0,-0 v-14 a0,0 0 0 1 0,-0 z"/>
<path class="st0" d="M182,98 h11 a3,3 0 0 1 3,3 v11 a0,0 0 0 1 -0,0 h-14 a0,0 0 0 1 -0,-0 v-11 a3,3 0 0 1 3,-3 z"/>
<path class="st0" d="M224,98 h14 a0,0 0 0 1 0,0 v14 a0,0 0 0 1 -0,0 h-11 a3,3 0 0 1 -3,-3 v-11 a0,0 0 0 1 0,-0 z"/><path class="st0" d="M241 98c-1 0 -3 -1 -3 -3 v3 h3 z"/>

<path class="st0" d="M238,98 h14 a0,0 0 0 1 0,0 v14 a0,0 0 0 1 -0,0 h-14 a0,0 0 0 1 -0,-0 v-14 a0,0 0 0 1 0,-0 z"/><path class="st0" d="M255 98c-1 0 -3 -1 -3 -3 v3 h3 z"/>
<path class="st0" d="M238 115 V112 h-3 c1 0 3 1 3 3z"/>

<path class="st0" d="M252,98 h14 a0,0 0 0 1 0,0 v14 a0,0 0 0 1 -0,0 h-14 a0,0 0 0 1 -0,-0 v-14 a0,0 0 0 1 0,-0 z"/><path class="st0" d="M269 112 h-3 v3 c0 -1 1 -3 3 -3 z"/>
<path class="st0" d="M252 115 V112 h-3 c1 0 3 1 3 3z"/>

<path class="st0" d="M266,98 h11 a3,3 0 0 1 3,3 v8 a3,3 0 0 1 -3,3 h-11 a0,0 0 0 1 -0,-0 v-14 a0,0 0 0 1 0,-0 z"/>
<path class="st0" d="M308,98 h14 a0,0 0 0 1 0,0 v14 a0,0 0 0 1 -0,0 h-14 a0,0 0 0 1 -0,-0 v-14 a0,0 0 0 1 0,-0 z"/><path class="st0" d="M325 98c-1 0 -3 -1 -3 -3 v3 h3 z"/>
<path class="st0" d="M325 112 h-3 v3 c0 -1 1 -3 3 -3 z"/>

<path class="st0" d="M322,98 h11 a3,3 0 0 1 3,3 v8 a3,3 0 0 1 -3,3 h-11 a0,0 0 0 1 -0,-0 v-14 a0,0 0 0 1 0,-0 z"/>
<path class="st0" d="M364,98 h14 a0,0 0 0 1 0,0 v14 a0,0 0 0 1 -0,0 h-14 a0,0 0 0 1 -0,-0 v-14 a0,0 0 0 1 0,-0 z"/>
<path class="st0" d="M392,98 h14 a0,0 0 0 1 0,0 v14 a0,0 0 0 1 -0,0 h-14 a0,0 0 0 1 -0,-0 v-14 a0,0 0 0 1 0,-0 z"/><path class="st0" d="M409 98c-1 0 -3 -1 -3 -3 v3 h3 z"/>
<path class="st0" d="M409 112 h-3 v3 c0 -1 1 -3 3 -3 z"/>

<path class="st0" d="M406,98 h14 a0,0 0 0 1 0,0 v14 a0,0 0 0 1 -0,0 h-14 a0,0 0 0 1 -0,-0 v-14 a0,0 0 0 1 0,-0 z"/>
<path class="st0" d="M420,98 h14 a0,0 0 0 1 0,0 v14 a0,0 0 0 1 -0,0 h-14 a0,0 0 0 1 -0,-0 v-14 a0,0 0 0 1 0,-0 z"/><path class="st0" d="M420 115 V112 h-3 c1 0 3 1 3 3z"/>
<path class="st0" d="M417 98c1 0 3-1 3-3v3h-3z"/>

<path class="st0" d="M448,98 h14 a0,0 0 0 1 0,0 v14 a0,0 0 0 1 -0,0 h-14 a0,0 0 0 1 -0,-0 v-14 a0,0 0 0 1 0,-0 z"/>
<path class="st0" d="M56,112 h14 a0,0 0 0 1 0,0 v14 a0,0 0 0 1 -0,0 h-14 a0,0 0 0 1 -0,-0 v-14 a0,0 0 0 1 0,-0 z"/>
<path class="st0" d="M84,112 h14 a0,0 0 0 1 0,0 v14 a0,0 0 0 1 -0,0 h-11 a3,3 0 0 1 -3,-3 v-11 a0,0 0 0 1 0,-0 z"/><path class="st0" d="M101 112c-1 0 -3 -1 -3 -3 v3 h3 z"/>

<path class="st0" d="M98,112 h14 a0,0 0 0 1 0,0 v14 a0,0 0 0 1 -0,0 h-14 a0,0 0 0 1 -0,-0 v-14 a0,0 0 0 1 0,-0 z"/><path class="st0" d="M115 112c-1 0 -3 -1 -3 -3 v3 h3 z"/>
<path class="st0" d="M95 112c1 0 3-1 3-3v3h-3z"/>

<path class="st0" d="M112,112 h14 a0,0 0 0 1 0,0 v11 a3,3 0 0 1 -3,3 h-11 a0,0 0 0 1 -0,-0 v-14 a0,0 0 0 1 0,-0 z"/><path class="st0" d="M109 112c1 0 3-1 3-3v3h-3z"/>

<path class="st0" d="M140,112 h14 a0,0 0 0 1 0,0 v14 a0,0 0 0 1 -0,0 h-14 a0,0 0 0 1 -0,-0 v-14 a0,0 0 0 1 0,-0 z"/>
<path class="st0" d="M182,112 h14 a0,0 0 0 1 0,0 v14 a0,0 0 0 1 -0,0 h-14 a0,0 0 0 1 -0,-0 v-14 a0,0 0 0 1 0,-0 z"/>
<path class="st0" d="M238,112 h14 a0,0 0 0 1 0,0 v14 a0,0 0 0 1 -0,0 h-14 a0,0 0 0 1 -0,-0 v-14 a0,0 0 0 1 0,-0 z"/><path class="st0" d="M255 112c-1 0 -3 -1 -3 -3 v3 h3 z"/>
<path class="st0" d="M255 126 h-3 v3 c0 -1 1 -3 3 -3 z"/>

<path class="st0" d="M252,112 h14 a0,0 0 0 1 0,0 v14 a0,0 0 0 1 -0,0 h-14 a0,0 0 0 1 -0,-0 v-14 a0,0 0 0 1 0,-0 z"/><path class="st0" d="M252 129 V126 h-3 c1 0 3 1 3 3z"/>
<path class="st0" d="M249 112c1 0 3-1 3-3v3h-3z"/>

<path class="st0" d="M280,112 h11 a3,3 0 0 1 3,3 v8 a3,3 0 0 1 -3,3 h-8 a3,3 0 0 1 -3,-3 v-8 a3,3 0 0 1 3,-3 z"/>
<path class="st0" d="M308,112 h14 a0,0 0 0 1 0,0 v14 a0,0 0 0 1 -0,0 h-14 a0,0 0 0 1 -0,-0 v-14 a0,0 0 0 1 0,-0 z"/>
<path class="st0" d="M364,112 h14 a0,0 0 0 1 0,0 v14 a0,0 0 0 1 -0,0 h-14 a0,0 0 0 1 -0,-0 v-14 a0,0 0 0 1 0,-0 z"/>
<path class="st0" d="M392,112 h14 a0,0 0 0 1 0,0 v14 a0,0 0 0 1 -0,0 h-11 a3,3 0 0 1 -3,-3 v-11 a0,0 0 0 1 0,-0 z"/><path class="st0" d="M409 112c-1 0 -3 -1 -3 -3 v3 h3 z"/>

<path class="st0" d="M406,112 h14 a0,0 0 0 1 0,0 v14 a0,0 0 0 1 -0,0 h-14 a0,0 0 0 1 -0,-0 v-14 a0,0 0 0 1 0,-0 z"/><path class="st0" d="M423 112c-1 0 -3 -1 -3 -3 v3 h3 z"/>
<path class="st0" d="M403 112c1 0 3-1 3-3v3h-3z"/>

<path class="st0" d="M420,112 h14 a0,0 0 0 1 0,0 v11 a3,3 0 0 1 -3,3 h-11 a0,0 0 0 1 -0,-0 v-14 a0,0 0 0 1 0,-0 z"/><path class="st0" d="M417 112c1 0 3-1 3-3v3h-3z"/>

<path class="st0" d="M448,112 h14 a0,0 0 0 1 0,0 v14 a0,0 0 0 1 -0,0 h-14 a0,0 0 0 1 -0,-0 v-14 a0,0 0 0 1 0,-0 z"/>
<path class="st0" d="M56,126 h14 a0,0 0 0 1 0,0 v14 a0,0 0 0 1 -0,0 h-14 a0,0 0 0 1 -0,-0 v-14 a0,0 0 0 1 0,-0 z"/>
<path class="st0" d="M140,126 h14 a0,0 0 0 1 0,0 v14 a0,0 0 0 1 -0,0 h-14 a0,0 0 0 1 -0,-0 v-14 a0,0 0 0 1 0,-0 z"/>
<path class="st0" d="M168,126 h14 a0,0 0 0 1 0,0 v14 a0,0 0 0 1 -0,0 h-14 a0,0 0 0 1 -0,-0 v-11 a3,3 0 0 1 3,-3 z"/><path class="st0" d="M185 140 h-3 v3 c0 -1 1 -3 3 -3 z"/>

<path class="st0" d="M182,126 h14 a0,0 0 0 1 0,0 v11 a3,3 0 0 1 -3,3 h-11 a0,0 0 0 1 -0,-0 v-14 a0,0 0 0 1 0,-0 z"/><path class="st0" d="M179 126c1 0 3-1 3-3v3h-3z"/>

<path class="st0" d="M238,126 h14 a0,0 0 0 1 0,0 v14 a0,0 0 0 1 -0,0 h-11 a3,3 0 0 1 -3,-3 v-11 a0,0 0 0 1 0,-0 z"/><path class="st0" d="M255 126c-1 0 -3 -1 -3 -3 v3 h3 z"/>

<path class="st0" d="M252,126 h14 a0,0 0 0 1 0,0 v14 a0,0 0 0 1 -0,0 h-14 a0,0 0 0 1 -0,-0 v-14 a0,0 0 0 1 0,-0 z"/><path class="st0" d="M252 143 V140 h-3 c1 0 3 1 3 3z"/>
<path class="st0" d="M249 126c1 0 3-1 3-3v3h-3z"/>

<path class="st0" d="M308,126 h14 a0,0 0 0 1 0,0 v14 a0,0 0 0 1 -0,0 h-14 a0,0 0 0 1 -0,-0 v-14 a0,0 0 0 1 0,-0 z"/><path class="st0" d="M325 126c-1 0 -3 -1 -3 -3 v3 h3 z"/>
<path class="st0" d="M325 140 h-3 v3 c0 -1 1 -3 3 -3 z"/>

<path class="st0" d="M322,126 h11 a3,3 0 0 1 3,3 v8 a3,3 0 0 1 -3,3 h-11 a0,0 0 0 1 -0,-0 v-14 a0,0 0 0 1 0,-0 z"/>
<path class="st0" d="M364,126 h14 a0,0 0 0 1 0,0 v14 a0,0 0 0 1 -0,0 h-14 a0,0 0 0 1 -0,-0 v-14 a0,0 0 0 1 0,-0 z"/>
<path class="st0" d="M448,126 h14 a0,0 0 0 1 0,0 v14 a0,0 0 0 1 -0,0 h-14 a0,0 0 0 1 -0,-0 v-14 a0,0 0 0 1 0,-0 z"/>
<path class="st0" d="M56,140 h14 a0,0 0 0 1 0,0 v14 a0,0 0 0 1 -0,0 h-11 a3,3 0 0 1 -3,-3 v-11 a0,0 0 0 1 0,-0 z"/><path class="st0" d="M73 140c-1 0 -3 -1 -3 -3 v3 h3 z"/>

<path class="st0" d="M70,140 h14 a0,0 0 0 1 0,0 v14 a0,0 0 0 1 -0,0 h-14 a0,0 0 0 1 -0,-0 v-14 a0,0 0 0 1 0,-0 z"/>
<path class="st0" d="M84,140 h14 a0,0 0 0 1 0,0 v14 a0,0 0 0 1 -0,0 h-14 a0,0 0 0 1 -0,-0 v-14 a0,0 0 0 1 0,-0 z"/>
<path class="st0" d="M98,140 h14 a0,0 0 0 1 0,0 v14 a0,0 0 0 1 -0,0 h-14 a0,0 0 0 1 -0,-0 v-14 a0,0 0 0 1 0,-0 z"/>
<path class="st0" d="M112,140 h14 a0,0 0 0 1 0,0 v14 a0,0 0 0 1 -0,0 h-14 a0,0 0 0 1 -0,-0 v-14 a0,0 0 0 1 0,-0 z"/>
<path class="st0" d="M126,140 h14 a0,0 0 0 1 0,0 v14 a0,0 0 0 1 -0,0 h-14 a0,0 0 0 1 -0,-0 v-14 a0,0 0 0 1 0,-0 z"/>
<path class="st0" d="M140,140 h14 a0,0 0 0 1 0,0 v11 a3,3 0 0 1 -3,3 h-11 a0,0 0 0 1 -0,-0 v-14 a0,0 0 0 1 0,-0 z"/><path class="st0" d="M137 140c1 0 3-1 3-3v3h-3z"/>

<path class="st0" d="M168,140 h14 a0,0 0 0 1 0,0 v11 a3,3 0 0 1 -3,3 h-8 a3,3 0 0 1 -3,-3 v-11 a0,0 0 0 1 0,-0 z"/>
<path class="st0" d="M196,140 h11 a3,3 0 0 1 3,3 v8 a3,3 0 0 1 -3,3 h-8 a3,3 0 0 1 -3,-3 v-8 a3,3 0 0 1 3,-3 z"/>
<path class="st0" d="M224,140 h11 a3,3 0 0 1 3,3 v11 a0,0 0 0 1 -0,0 h-14 a0,0 0 0 1 -0,-0 v-11 a3,3 0 0 1 3,-3 z"/>
<path class="st0" d="M252,140 h14 a0,0 0 0 1 0,0 v14 a0,0 0 0 1 -0,0 h-14 a0,0 0 0 1 -0,-0 v-14 a0,0 0 0 1 0,-0 z"/>
<path class="st0" d="M280,140 h11 a3,3 0 0 1 3,3 v8 a3,3 0 0 1 -3,3 h-8 a3,3 0 0 1 -3,-3 v-8 a3,3 0 0 1 3,-3 z"/>
<path class="st0" d="M308,140 h14 a0,0 0 0 1 0,0 v14 a0,0 0 0 1 -0,0 h-14 a0,0 0 0 1 -0,-0 v-14 a0,0 0 0 1 0,-0 z"/>
<path class="st0" d="M336,140 h11 a3,3 0 0 1 3,3 v11 a0,0 0 0 1 -0,0 h-14 a0,0 0 0 1 -0,-0 v-11 a3,3 0 0 1 3,-3 z"/>
<path class="st0" d="M364,140 h14 a0,0 0 0 1 0,0 v14 a0,0 0 0 1 -0,0 h-11 a3,3 0 0 1 -3,-3 v-11 a0,0 0 0 1 0,-0 z"/><path class="st0" d="M381 140c-1 0 -3 -1 -3 -3 v3 h3 z"/>

<path class="st0" d="M378,140 h14 a0,0 0 0 1 0,0 v14 a0,0 0 0 1 -0,0 h-14 a0,0 0 0 1 -0,-0 v-14 a0,0 0 0 1 0,-0 z"/>
<path class="st0" d="M392,140 h14 a0,0 0 0 1 0,0 v14 a0,0 0 0 1 -0,0 h-14 a0,0 0 0 1 -0,-0 v-14 a0,0 0 0 1 0,-0 z"/>
<path class="st0" d="M406,140 h14 a0,0 0 0 1 0,0 v14 a0,0 0 0 1 -0,0 h-14 a0,0 0 0 1 -0,-0 v-14 a0,0 0 0 1 0,-0 z"/>
<path class="st0" d="M420,140 h14 a0,0 0 0 1 0,0 v14 a0,0 0 0 1 -0,0 h-14 a0,0 0 0 1 -0,-0 v-14 a0,0 0 0 1 0,-0 z"/>
<path class="st0" d="M434,140 h14 a0,0 0 0 1 0,0 v14 a0,0 0 0 1 -0,0 h-14 a0,0 0 0 1 -0,-0 v-14 a0,0 0 0 1 0,-0 z"/>
<path class="st0" d="M448,140 h14 a0,0 0 0 1 0,0 v11 a3,3 0 0 1 -3,3 h-11 a0,0 0 0 1 -0,-0 v-14 a0,0 0 0 1 0,-0 z"/><path class="st0" d="M445 140c1 0 3-1 3-3v3h-3z"/>

<path class="st0" d="M182,154 h11 a3,3 0 0 1 3,3 v8 a3,3 0 0 1 -3,3 h-8 a3,3 0 0 1 -3,-3 v-8 a3,3 0 0 1 3,-3 z"/>
<path class="st0" d="M210,154 h14 a0,0 0 0 1 0,0 v14 a0,0 0 0 1 -0,0 h-11 a3,3 0 0 1 -3,-3 v-8 a3,3 0 0 1 3,-3 z"/>
<path class="st0" d="M224,154 h14 a0,0 0 0 1 0,0 v14 a0,0 0 0 1 -0,0 h-14 a0,0 0 0 1 -0,-0 v-14 a0,0 0 0 1 0,-0 z"/><path class="st0" d="M224 171 V168 h-3 c1 0 3 1 3 3z"/>
<path class="st0" d="M221 154c1 0 3-1 3-3v3h-3z"/>

<path class="st0" d="M252,154 h14 a0,0 0 0 1 0,0 v11 a3,3 0 0 1 -3,3 h-8 a3,3 0 0 1 -3,-3 v-11 a0,0 0 0 1 0,-0 z"/>
<path class="st0" d="M294,154 h14 a0,0 0 0 1 0,0 v14 a0,0 0 0 1 -0,0 h-11 a3,3 0 0 1 -3,-3 v-8 a3,3 0 0 1 3,-3 z"/>
<path class="st0" d="M308,154 h14 a0,0 0 0 1 0,0 v14 a0,0 0 0 1 -0,0 h-14 a0,0 0 0 1 -0,-0 v-14 a0,0 0 0 1 0,-0 z"/><path class="st0" d="M325 154c-1 0 -3 -1 -3 -3 v3 h3 z"/>
<path class="st0" d="M305 154c1 0 3-1 3-3v3h-3z"/>

<path class="st0" d="M322,154 h14 a0,0 0 0 1 0,0 v14 a0,0 0 0 1 -0,0 h-14 a0,0 0 0 1 -0,-0 v-14 a0,0 0 0 1 0,-0 z"/>
<path class="st0" d="M336,154 h14 a0,0 0 0 1 0,0 v11 a3,3 0 0 1 -3,3 h-11 a0,0 0 0 1 -0,-0 v-14 a0,0 0 0 1 0,-0 z"/><path class="st0" d="M333 154c1 0 3-1 3-3v3h-3z"/>

<path class="st0" d="M56,168 h11 a3,3 0 0 1 3,3 v11 a0,0 0 0 1 -0,0 h-14 a0,0 0 0 1 -0,-0 v-11 a3,3 0 0 1 3,-3 z"/>
<path class="st0" d="M98,168 h11 a3,3 0 0 1 3,3 v8 a3,3 0 0 1 -3,3 h-8 a3,3 0 0 1 -3,-3 v-8 a3,3 0 0 1 3,-3 z"/>
<path class="st0" d="M126,168 h14 a0,0 0 0 1 0,0 v14 a0,0 0 0 1 -0,0 h-11 a3,3 0 0 1 -3,-3 v-8 a3,3 0 0 1 3,-3 z"/>
<path class="st0" d="M140,168 h11 a3,3 0 0 1 3,3 v8 a3,3 0 0 1 -3,3 h-11 a0,0 0 0 1 -0,-0 v-14 a0,0 0 0 1 0,-0 z"/>
<path class="st0" d="M168,168 h11 a3,3 0 0 1 3,3 v11 a0,0 0 0 1 -0,0 h-14 a0,0 0 0 1 -0,-0 v-11 a3,3 0 0 1 3,-3 z"/>
<path class="st0" d="M224,168 h14 a0,0 0 0 1 0,0 v11 a3,3 0 0 1 -3,3 h-8 a3,3 0 0 1 -3,-3 v-11 a0,0 0 0 1 0,-0 z"/>
<path class="st0" d="M266,168 h14 a0,0 0 0 1 0,0 v14 a0,0 0 0 1 -0,0 h-14 a0,0 0 0 1 -0,-0 v-11 a3,3 0 0 1 3,-3 z"/><path class="st0" d="M283 182 h-3 v3 c0 -1 1 -3 3 -3 z"/>

<path class="st0" d="M280,168 h11 a3,3 0 0 1 3,3 v8 a3,3 0 0 1 -3,3 h-11 a0,0 0 0 1 -0,-0 v-14 a0,0 0 0 1 0,-0 z"/>
<path class="st0" d="M350,168 h11 a3,3 0 0 1 3,3 v8 a3,3 0 0 1 -3,3 h-8 a3,3 0 0 1 -3,-3 v-8 a3,3 0 0 1 3,-3 z"/>
<path class="st0" d="M378,168 h11 a3,3 0 0 1 3,3 v8 a3,3 0 0 1 -3,3 h-8 a3,3 0 0 1 -3,-3 v-8 a3,3 0 0 1 3,-3 z"/>
<path class="st0" d="M56,182 h14 a0,0 0 0 1 0,0 v14 a0,0 0 0 1 -0,0 h-11 a3,3 0 0 1 -3,-3 v-11 a0,0 0 0 1 0,-0 z"/><path class="st0" d="M73 182c-1 0 -3 -1 -3 -3 v3 h3 z"/>

<path class="st0" d="M70,182 h11 a3,3 0 0 1 3,3 v11 a0,0 0 0 1 -0,0 h-14 a0,0 0 0 1 -0,-0 v-14 a0,0 0 0 1 0,-0 z"/><path class="st0" d="M70 199 V196 h-3 c1 0 3 1 3 3z"/>

<path class="st0" d="M154,182 h14 a0,0 0 0 1 0,0 v14 a0,0 0 0 1 -0,0 h-14 a0,0 0 0 1 -0,-0 v-11 a3,3 0 0 1 3,-3 z"/><path class="st0" d="M171 196 h-3 v3 c0 -1 1 -3 3 -3 z"/>

<path class="st0" d="M168,182 h14 a0,0 0 0 1 0,0 v11 a3,3 0 0 1 -3,3 h-11 a0,0 0 0 1 -0,-0 v-14 a0,0 0 0 1 0,-0 z"/><path class="st0" d="M165 182c1 0 3-1 3-3v3h-3z"/>

<path class="st0" d="M252,182 h14 a0,0 0 0 1 0,0 v14 a0,0 0 0 1 -0,0 h-11 a3,3 0 0 1 -3,-3 v-8 a3,3 0 0 1 3,-3 z"/>
<path class="st0" d="M266,182 h14 a0,0 0 0 1 0,0 v11 a3,3 0 0 1 -3,3 h-11 a0,0 0 0 1 -0,-0 v-14 a0,0 0 0 1 0,-0 z"/><path class="st0" d="M263 182c1 0 3-1 3-3v3h-3z"/>

<path class="st0" d="M294,182 h14 a0,0 0 0 1 0,0 v14 a0,0 0 0 1 -0,0 h-14 a0,0 0 0 1 -0,-0 v-11 a3,3 0 0 1 3,-3 z"/><path class="st0" d="M311 196 h-3 v3 c0 -1 1 -3 3 -3 z"/>

<path class="st0" d="M308,182 h11 a3,3 0 0 1 3,3 v11 a0,0 0 0 1 -0,0 h-14 a0,0 0 0 1 -0,-0 v-14 a0,0 0 0 1 0,-0 z"/><path class="st0" d="M308 199 V196 h-3 c1 0 3 1 3 3z"/>

<path class="st0" d="M336,182 h11 a3,3 0 0 1 3,3 v8 a3,3 0 0 1 -3,3 h-8 a3,3 0 0 1 -3,-3 v-8 a3,3 0 0 1 3,-3 z"/>
<path class="st0" d="M364,182 h11 a3,3 0 0 1 3,3 v8 a3,3 0 0 1 -3,3 h-8 a3,3 0 0 1 -3,-3 v-8 a3,3 0 0 1 3,-3 z"/>
<path class="st0" d="M406,182 h11 a3,3 0 0 1 3,3 v11 a0,0 0 0 1 -0,0 h-14 a0,0 0 0 1 -0,-0 v-11 a3,3 0 0 1 3,-3 z"/>
<path class="st0" d="M448,182 h11 a3,3 0 0 1 3,3 v8 a3,3 0 0 1 -3,3 h-8 a3,3 0 0 1 -3,-3 v-8 a3,3 0 0 1 3,-3 z"/>
<path class="st0" d="M70,196 h14 a0,0 0 0 1 0,0 v14 a0,0 0 0 1 -0,0 h-11 a3,3 0 0 1 -3,-3 v-11 a0,0 0 0 1 0,-0 z"/><path class="st0" d="M87 196c-1 0 -3 -1 -3 -3 v3 h3 z"/>

<path class="st0" d="M84,196 h11 a3,3 0 0 1 3,3 v11 a0,0 0 0 1 -0,0 h-14 a0,0 0 0 1 -0,-0 v-14 a0,0 0 0 1 0,-0 z"/><path class="st0" d="M84 213 V210 h-3 c1 0 3 1 3 3z"/>

<path class="st0" d="M126,196 h14 a0,0 0 0 1 0,0 v14 a0,0 0 0 1 -0,0 h-14 a0,0 0 0 1 -0,-0 v-11 a3,3 0 0 1 3,-3 z"/><path class="st0" d="M143 210 h-3 v3 c0 -1 1 -3 3 -3 z"/>

<path class="st0" d="M140,196 h14 a0,0 0 0 1 0,0 v14 a0,0 0 0 1 -0,0 h-14 a0,0 0 0 1 -0,-0 v-14 a0,0 0 0 1 0,-0 z"/>
<path class="st0" d="M154,196 h14 a0,0 0 0 1 0,0 v11 a3,3 0 0 1 -3,3 h-11 a0,0 0 0 1 -0,-0 v-14 a0,0 0 0 1 0,-0 z"/><path class="st0" d="M151 196c1 0 3-1 3-3v3h-3z"/>

<path class="st0" d="M224,196 h11 a3,3 0 0 1 3,3 v11 a0,0 0 0 1 -0,0 h-14 a0,0 0 0 1 -0,-0 v-11 a3,3 0 0 1 3,-3 z"/>
<path class="st0" d="M280,196 h14 a0,0 0 0 1 0,0 v14 a0,0 0 0 1 -0,0 h-14 a0,0 0 0 1 -0,-0 v-11 a3,3 0 0 1 3,-3 z"/><path class="st0" d="M297 210 h-3 v3 c0 -1 1 -3 3 -3 z"/>

<path class="st0" d="M294,196 h14 a0,0 0 0 1 0,0 v14 a0,0 0 0 1 -0,0 h-14 a0,0 0 0 1 -0,-0 v-14 a0,0 0 0 1 0,-0 z"/><path class="st0" d="M311 196c-1 0 -3 -1 -3 -3 v3 h3 z"/>
<path class="st0" d="M291 196c1 0 3-1 3-3v3h-3z"/>

<path class="st0" d="M308,196 h14 a0,0 0 0 1 0,0 v14 a0,0 0 0 1 -0,0 h-14 a0,0 0 0 1 -0,-0 v-14 a0,0 0 0 1 0,-0 z"/><path class="st0" d="M325 196c-1 0 -3 -1 -3 -3 v3 h3 z"/>
<path class="st0" d="M305 196c1 0 3-1 3-3v3h-3z"/>

<path class="st0" d="M322,196 h11 a3,3 0 0 1 3,3 v11 a0,0 0 0 1 -0,0 h-14 a0,0 0 0 1 -0,-0 v-14 a0,0 0 0 1 0,-0 z"/><path class="st0" d="M322 213 V210 h-3 c1 0 3 1 3 3z"/>

<path class="st0" d="M406,196 h14 a0,0 0 0 1 0,0 v14 a0,0 0 0 1 -0,0 h-11 a3,3 0 0 1 -3,-3 v-11 a0,0 0 0 1 0,-0 z"/><path class="st0" d="M423 196c-1 0 -3 -1 -3 -3 v3 h3 z"/>

<path class="st0" d="M420,196 h14 a0,0 0 0 1 0,0 v14 a0,0 0 0 1 -0,0 h-14 a0,0 0 0 1 -0,-0 v-14 a0,0 0 0 1 0,-0 z"/><path class="st0" d="M437 210 h-3 v3 c0 -1 1 -3 3 -3 z"/>
<path class="st0" d="M420 213 V210 h-3 c1 0 3 1 3 3z"/>

<path class="st0" d="M434,196 h11 a3,3 0 0 1 3,3 v11 a0,0 0 0 1 -0,0 h-14 a0,0 0 0 1 -0,-0 v-14 a0,0 0 0 1 0,-0 z"/><path class="st0" d="M434 213 V210 h-3 c1 0 3 1 3 3z"/>

<path class="st0" d="M56,210 h11 a3,3 0 0 1 3,3 v8 a3,3 0 0 1 -3,3 h-8 a3,3 0 0 1 -3,-3 v-8 a3,3 0 0 1 3,-3 z"/>
<path class="st0" d="M84,210 h14 a0,0 0 0 1 0,0 v14 a0,0 0 0 1 -0,0 h-14 a0,0 0 0 1 -0,-0 v-14 a0,0 0 0 1 0,-0 z"/>
<path class="st0" d="M112,210 h14 a0,0 0 0 1 0,0 v14 a0,0 0 0 1 -0,0 h-14 a0,0 0 0 1 -0,-0 v-11 a3,3 0 0 1 3,-3 z"/><path class="st0" d="M129 224 h-3 v3 c0 -1 1 -3 3 -3 z"/>

<path class="st0" d="M126,210 h14 a0,0 0 0 1 0,0 v14 a0,0 0 0 1 -0,0 h-14 a0,0 0 0 1 -0,-0 v-14 a0,0 0 0 1 0,-0 z"/><path class="st0" d="M126 227 V224 h-3 c1 0 3 1 3 3z"/>
<path class="st0" d="M123 210c1 0 3-1 3-3v3h-3z"/>

<path class="st0" d="M182,210 h11 a3,3 0 0 1 3,3 v11 a0,0 0 0 1 -0,0 h-14 a0,0 0 0 1 -0,-0 v-11 a3,3 0 0 1 3,-3 z"/>
<path class="st0" d="M210,210 h14 a0,0 0 0 1 0,0 v14 a0,0 0 0 1 -0,0 h-11 a3,3 0 0 1 -3,-3 v-8 a3,3 0 0 1 3,-3 z"/>
<path class="st0" d="M224,210 h14 a0,0 0 0 1 0,0 v11 a3,3 0 0 1 -3,3 h-11 a0,0 0 0 1 -0,-0 v-14 a0,0 0 0 1 0,-0 z"/><path class="st0" d="M221 210c1 0 3-1 3-3v3h-3z"/>

<path class="st0" d="M252,210 h11 a3,3 0 0 1 3,3 v8 a3,3 0 0 1 -3,3 h-8 a3,3 0 0 1 -3,-3 v-8 a3,3 0 0 1 3,-3 z"/>
<path class="st0" d="M280,210 h14 a0,0 0 0 1 0,0 v14 a0,0 0 0 1 -0,0 h-14 a0,0 0 0 1 -0,-0 v-14 a0,0 0 0 1 0,-0 z"/>
<path class="st0" d="M322,210 h14 a0,0 0 0 1 0,0 v14 a0,0 0 0 1 -0,0 h-14 a0,0 0 0 1 -0,-0 v-14 a0,0 0 0 1 0,-0 z"/>
<path class="st0" d="M378,210 h14 a0,0 0 0 1 0,0 v14 a0,0 0 0 1 -0,0 h-11 a3,3 0 0 1 -3,-3 v-8 a3,3 0 0 1 3,-3 z"/>
<path class="st0" d="M392,210 h11 a3,3 0 0 1 3,3 v8 a3,3 0 0 1 -3,3 h-11 a0,0 0 0 1 -0,-0 v-14 a0,0 0 0 1 0,-0 z"/>
<path class="st0" d="M420,210 h14 a0,0 0 0 1 0,0 v14 a0,0 0 0 1 -0,0 h-11 a3,3 0 0 1 -3,-3 v-11 a0,0 0 0 1 0,-0 z"/><path class="st0" d="M437 210c-1 0 -3 -1 -3 -3 v3 h3 z"/>

<path class="st0" d="M434,210 h14 a0,0 0 0 1 0,0 v14 a0,0 0 0 1 -0,0 h-14 a0,0 0 0 1 -0,-0 v-14 a0,0 0 0 1 0,-0 z"/><path class="st0" d="M434 227 V224 h-3 c1 0 3 1 3 3z"/>
<path class="st0" d="M431 210c1 0 3-1 3-3v3h-3z"/>

<path class="st0" d="M70,224 h14 a0,0 0 0 1 0,0 v14 a0,0 0 0 1 -0,0 h-11 a3,3 0 0 1 -3,-3 v-8 a3,3 0 0 1 3,-3 z"/>
<path class="st0" d="M84,224 h14 a0,0 0 0 1 0,0 v14 a0,0 0 0 1 -0,0 h-14 a0,0 0 0 1 -0,-0 v-14 a0,0 0 0 1 0,-0 z"/><path class="st0" d="M101 224c-1 0 -3 -1 -3 -3 v3 h3 z"/>
<path class="st0" d="M101 238 h-3 v3 c0 -1 1 -3 3 -3 z"/>
<path class="st0" d="M84 241 V238 h-3 c1 0 3 1 3 3z"/>

<path class="st0" d="M98,224 h14 a0,0 0 0 1 0,0 v14 a0,0 0 0 1 -0,0 h-14 a0,0 0 0 1 -0,-0 v-14 a0,0 0 0 1 0,-0 z"/><path class="st0" d="M115 238 h-3 v3 c0 -1 1 -3 3 -3 z"/>
<path class="st0" d="M98 241 V238 h-3 c1 0 3 1 3 3z"/>

<path class="st0" d="M112,224 h14 a0,0 0 0 1 0,0 v14 a0,0 0 0 1 -0,0 h-14 a0,0 0 0 1 -0,-0 v-14 a0,0 0 0 1 0,-0 z"/><path class="st0" d="M129 238 h-3 v3 c0 -1 1 -3 3 -3 z"/>
<path class="st0" d="M109 224c1 0 3-1 3-3v3h-3z"/>

<path class="st0" d="M126,224 h14 a0,0 0 0 1 0,0 v14 a0,0 0 0 1 -0,0 h-14 a0,0 0 0 1 -0,-0 v-14 a0,0 0 0 1 0,-0 z"/><path class="st0" d="M143 224c-1 0 -3 -1 -3 -3 v3 h3 z"/>
<path class="st0" d="M123 224c1 0 3-1 3-3v3h-3z"/>

<path class="st0" d="M140,224 h11 a3,3 0 0 1 3,3 v8 a3,3 0 0 1 -3,3 h-11 a0,0 0 0 1 -0,-0 v-14 a0,0 0 0 1 0,-0 z"/>
<path class="st0" d="M168,224 h14 a0,0 0 0 1 0,0 v14 a0,0 0 0 1 -0,0 h-11 a3,3 0 0 1 -3,-3 v-8 a3,3 0 0 1 3,-3 z"/>
<path class="st0" d="M182,224 h14 a0,0 0 0 1 0,0 v14 a0,0 0 0 1 -0,0 h-14 a0,0 0 0 1 -0,-0 v-14 a0,0 0 0 1 0,-0 z"/><path class="st0" d="M199 224c-1 0 -3 -1 -3 -3 v3 h3 z"/>
<path class="st0" d="M199 238 h-3 v3 c0 -1 1 -3 3 -3 z"/>
<path class="st0" d="M182 241 V238 h-3 c1 0 3 1 3 3z"/>

<path class="st0" d="M196,224 h11 a3,3 0 0 1 3,3 v11 a0,0 0 0 1 -0,0 h-14 a0,0 0 0 1 -0,-0 v-14 a0,0 0 0 1 0,-0 z"/><path class="st0" d="M196 241 V238 h-3 c1 0 3 1 3 3z"/>

<path class="st0" d="M266,224 h14 a0,0 0 0 1 0,0 v14 a0,0 0 0 1 -0,0 h-11 a3,3 0 0 1 -3,-3 v-8 a3,3 0 0 1 3,-3 z"/>
<path class="st0" d="M280,224 h14 a0,0 0 0 1 0,0 v14 a0,0 0 0 1 -0,0 h-14 a0,0 0 0 1 -0,-0 v-14 a0,0 0 0 1 0,-0 z"/><path class="st0" d="M297 224c-1 0 -3 -1 -3 -3 v3 h3 z"/>
<path class="st0" d="M297 238 h-3 v3 c0 -1 1 -3 3 -3 z"/>
<path class="st0" d="M280 241 V238 h-3 c1 0 3 1 3 3z"/>

<path class="st0" d="M294,224 h11 a3,3 0 0 1 3,3 v11 a0,0 0 0 1 -0,0 h-14 a0,0 0 0 1 -0,-0 v-14 a0,0 0 0 1 0,-0 z"/><path class="st0" d="M294 241 V238 h-3 c1 0 3 1 3 3z"/>

<path class="st0" d="M322,224 h14 a0,0 0 0 1 0,0 v14 a0,0 0 0 1 -0,0 h-14 a0,0 0 0 1 -0,-0 v-14 a0,0 0 0 1 0,-0 z"/><path class="st0" d="M339 224c-1 0 -3 -1 -3 -3 v3 h3 z"/>
<path class="st0" d="M339 238 h-3 v3 c0 -1 1 -3 3 -3 z"/>

<path class="st0" d="M336,224 h14 a0,0 0 0 1 0,0 v14 a0,0 0 0 1 -0,0 h-14 a0,0 0 0 1 -0,-0 v-14 a0,0 0 0 1 0,-0 z"/>
<path class="st0" d="M350,224 h14 a0,0 0 0 1 0,0 v14 a0,0 0 0 1 -0,0 h-14 a0,0 0 0 1 -0,-0 v-14 a0,0 0 0 1 0,-0 z"/>
<path class="st0" d="M364,224 h11 a3,3 0 0 1 3,3 v8 a3,3 0 0 1 -3,3 h-11 a0,0 0 0 1 -0,-0 v-14 a0,0 0 0 1 0,-0 z"/>
<path class="st0" d="M406,224 h11 a3,3 0 0 1 3,3 v8 a3,3 0 0 1 -3,3 h-8 a3,3 0 0 1 -3,-3 v-8 a3,3 0 0 1 3,-3 z"/>
<path class="st0" d="M434,224 h14 a0,0 0 0 1 0,0 v14 a0,0 0 0 1 -0,0 h-11 a3,3 0 0 1 -3,-3 v-11 a0,0 0 0 1 0,-0 z"/><path class="st0" d="M451 224c-1 0 -3 -1 -3 -3 v3 h3 z"/>

<path class="st0" d="M448,224 h11 a3,3 0 0 1 3,3 v8 a3,3 0 0 1 -3,3 h-11 a0,0 0 0 1 -0,-0 v-14 a0,0 0 0 1 0,-0 z"/>
<path class="st0" d="M84,238 h14 a0,0 0 0 1 0,0 v14 a0,0 0 0 1 -0,0 h-11 a3,3 0 0 1 -3,-3 v-11 a0,0 0 0 1 0,-0 z"/><path class="st0" d="M101 238c-1 0 -3 -1 -3 -3 v3 h3 z"/>

<path class="st0" d="M98,238 h14 a0,0 0 0 1 0,0 v14 a0,0 0 0 1 -0,0 h-14 a0,0 0 0 1 -0,-0 v-14 a0,0 0 0 1 0,-0 z"/><path class="st0" d="M115 238c-1 0 -3 -1 -3 -3 v3 h3 z"/>
<path class="st0" d="M95 238c1 0 3-1 3-3v3h-3z"/>

<path class="st0" d="M112,238 h14 a0,0 0 0 1 0,0 v11 a3,3 0 0 1 -3,3 h-11 a0,0 0 0 1 -0,-0 v-14 a0,0 0 0 1 0,-0 z"/><path class="st0" d="M109 238c1 0 3-1 3-3v3h-3z"/>

<path class="st0" d="M154,238 h11 a3,3 0 0 1 3,3 v8 a3,3 0 0 1 -3,3 h-8 a3,3 0 0 1 -3,-3 v-8 a3,3 0 0 1 3,-3 z"/>
<path class="st0" d="M182,238 h14 a0,0 0 0 1 0,0 v14 a0,0 0 0 1 -0,0 h-11 a3,3 0 0 1 -3,-3 v-11 a0,0 0 0 1 0,-0 z"/><path class="st0" d="M199 238c-1 0 -3 -1 -3 -3 v3 h3 z"/>

<path class="st0" d="M196,238 h14 a0,0 0 0 1 0,0 v11 a3,3 0 0 1 -3,3 h-11 a0,0 0 0 1 -0,-0 v-14 a0,0 0 0 1 0,-0 z"/><path class="st0" d="M193 238c1 0 3-1 3-3v3h-3z"/>

<path class="st0" d="M280,238 h14 a0,0 0 0 1 0,0 v14 a0,0 0 0 1 -0,0 h-11 a3,3 0 0 1 -3,-3 v-11 a0,0 0 0 1 0,-0 z"/><path class="st0" d="M297 238c-1 0 -3 -1 -3 -3 v3 h3 z"/>

<path class="st0" d="M294,238 h14 a0,0 0 0 1 0,0 v14 a0,0 0 0 1 -0,0 h-14 a0,0 0 0 1 -0,-0 v-14 a0,0 0 0 1 0,-0 z"/><path class="st0" d="M294 255 V252 h-3 c1 0 3 1 3 3z"/>
<path class="st0" d="M291 238c1 0 3-1 3-3v3h-3z"/>

<path class="st0" d="M322,238 h14 a0,0 0 0 1 0,0 v11 a3,3 0 0 1 -3,3 h-8 a3,3 0 0 1 -3,-3 v-11 a0,0 0 0 1 0,-0 z"/>
<path class="st0" d="M378,238 h11 a3,3 0 0 1 3,3 v8 a3,3 0 0 1 -3,3 h-8 a3,3 0 0 1 -3,-3 v-8 a3,3 0 0 1 3,-3 z"/>
<path class="st0" d="M56,252 h11 a3,3 0 0 1 3,3 v8 a3,3 0 0 1 -3,3 h-8 a3,3 0 0 1 -3,-3 v-8 a3,3 0 0 1 3,-3 z"/>
<path class="st0" d="M126,252 h14 a0,0 0 0 1 0,0 v14 a0,0 0 0 1 -0,0 h-11 a3,3 0 0 1 -3,-3 v-8 a3,3 0 0 1 3,-3 z"/>
<path class="st0" d="M140,252 h11 a3,3 0 0 1 3,3 v8 a3,3 0 0 1 -3,3 h-11 a0,0 0 0 1 -0,-0 v-14 a0,0 0 0 1 0,-0 z"/>
<path class="st0" d="M168,252 h11 a3,3 0 0 1 3,3 v8 a3,3 0 0 1 -3,3 h-8 a3,3 0 0 1 -3,-3 v-8 a3,3 0 0 1 3,-3 z"/>
<path class="st0" d="M210,252 h14 a0,0 0 0 1 0,0 v14 a0,0 0 0 1 -0,0 h-11 a3,3 0 0 1 -3,-3 v-8 a3,3 0 0 1 3,-3 z"/>
<path class="st0" d="M224,252 h11 a3,3 0 0 1 3,3 v8 a3,3 0 0 1 -3,3 h-11 a0,0 0 0 1 -0,-0 v-14 a0,0 0 0 1 0,-0 z"/>
<path class="st0" d="M294,252 h14 a0,0 0 0 1 0,0 v14 a0,0 0 0 1 -0,0 h-14 a0,0 0 0 1 -0,-0 v-14 a0,0 0 0 1 0,-0 z"/><path class="st0" d="M311 252c-1 0 -3 -1 -3 -3 v3 h3 z"/>
<path class="st0" d="M311 266 h-3 v3 c0 -1 1 -3 3 -3 z"/>

<path class="st0" d="M308,252 h11 a3,3 0 0 1 3,3 v11 a0,0 0 0 1 -0,0 h-14 a0,0 0 0 1 -0,-0 v-14 a0,0 0 0 1 0,-0 z"/><path class="st0" d="M308 269 V266 h-3 c1 0 3 1 3 3z"/>

<path class="st0" d="M336,252 h11 a3,3 0 0 1 3,3 v11 a0,0 0 0 1 -0,0 h-14 a0,0 0 0 1 -0,-0 v-11 a3,3 0 0 1 3,-3 z"/>
<path class="st0" d="M364,252 h11 a3,3 0 0 1 3,3 v11 a0,0 0 0 1 -0,0 h-14 a0,0 0 0 1 -0,-0 v-11 a3,3 0 0 1 3,-3 z"/>
<path class="st0" d="M406,252 h14 a0,0 0 0 1 0,0 v14 a0,0 0 0 1 -0,0 h-14 a0,0 0 0 1 -0,-0 v-11 a3,3 0 0 1 3,-3 z"/><path class="st0" d="M423 266 h-3 v3 c0 -1 1 -3 3 -3 z"/>

<path class="st0" d="M420,252 h14 a0,0 0 0 1 0,0 v14 a0,0 0 0 1 -0,0 h-14 a0,0 0 0 1 -0,-0 v-14 a0,0 0 0 1 0,-0 z"/>
<path class="st0" d="M434,252 h14 a0,0 0 0 1 0,0 v14 a0,0 0 0 1 -0,0 h-14 a0,0 0 0 1 -0,-0 v-14 a0,0 0 0 1 0,-0 z"/><path class="st0" d="M451 266 h-3 v3 c0 -1 1 -3 3 -3 z"/>
<path class="st0" d="M434 269 V266 h-3 c1 0 3 1 3 3z"/>

<path class="st0" d="M448,252 h11 a3,3 0 0 1 3,3 v8 a3,3 0 0 1 -3,3 h-11 a0,0 0 0 1 -0,-0 v-14 a0,0 0 0 1 0,-0 z"/>
<path class="st0" d="M70,266 h14 a0,0 0 0 1 0,0 v14 a0,0 0 0 1 -0,0 h-14 a0,0 0 0 1 -0,-0 v-11 a3,3 0 0 1 3,-3 z"/><path class="st0" d="M87 280 h-3 v3 c0 -1 1 -3 3 -3 z"/>

<path class="st0" d="M84,266 h11 a3,3 0 0 1 3,3 v8 a3,3 0 0 1 -3,3 h-11 a0,0 0 0 1 -0,-0 v-14 a0,0 0 0 1 0,-0 z"/>
<path class="st0" d="M112,266 h11 a3,3 0 0 1 3,3 v11 a0,0 0 0 1 -0,0 h-14 a0,0 0 0 1 -0,-0 v-11 a3,3 0 0 1 3,-3 z"/>
<path class="st0" d="M154,266 h11 a3,3 0 0 1 3,3 v11 a0,0 0 0 1 -0,0 h-14 a0,0 0 0 1 -0,-0 v-11 a3,3 0 0 1 3,-3 z"/>
<path class="st0" d="M238,266 h14 a0,0 0 0 1 0,0 v14 a0,0 0 0 1 -0,0 h-14 a0,0 0 0 1 -0,-0 v-11 a3,3 0 0 1 3,-3 z"/><path class="st0" d="M255 280 h-3 v3 c0 -1 1 -3 3 -3 z"/>

<path class="st0" d="M252,266 h14 a0,0 0 0 1 0,0 v14 a0,0 0 0 1 -0,0 h-14 a0,0 0 0 1 -0,-0 v-14 a0,0 0 0 1 0,-0 z"/><path class="st0" d="M269 280 h-3 v3 c0 -1 1 -3 3 -3 z"/>
<path class="st0" d="M252 283 V280 h-3 c1 0 3 1 3 3z"/>

<path class="st0" d="M266,266 h14 a0,0 0 0 1 0,0 v14 a0,0 0 0 1 -0,0 h-14 a0,0 0 0 1 -0,-0 v-14 a0,0 0 0 1 0,-0 z"/><path class="st0" d="M283 280 h-3 v3 c0 -1 1 -3 3 -3 z"/>
<path class="st0" d="M266 283 V280 h-3 c1 0 3 1 3 3z"/>

<path class="st0" d="M280,266 h14 a0,0 0 0 1 0,0 v14 a0,0 0 0 1 -0,0 h-14 a0,0 0 0 1 -0,-0 v-14 a0,0 0 0 1 0,-0 z"/>
<path class="st0" d="M294,266 h14 a0,0 0 0 1 0,0 v14 a0,0 0 0 1 -0,0 h-14 a0,0 0 0 1 -0,-0 v-14 a0,0 0 0 1 0,-0 z"/><path class="st0" d="M311 266c-1 0 -3 -1 -3 -3 v3 h3 z"/>
<path class="st0" d="M311 280 h-3 v3 c0 -1 1 -3 3 -3 z"/>
<path class="st0" d="M291 266c1 0 3-1 3-3v3h-3z"/>

<path class="st0" d="M308,266 h14 a0,0 0 0 1 0,0 v14 a0,0 0 0 1 -0,0 h-14 a0,0 0 0 1 -0,-0 v-14 a0,0 0 0 1 0,-0 z"/><path class="st0" d="M325 266c-1 0 -3 -1 -3 -3 v3 h3 z"/>
<path class="st0" d="M305 266c1 0 3-1 3-3v3h-3z"/>

<path class="st0" d="M322,266 h14 a0,0 0 0 1 0,0 v14 a0,0 0 0 1 -0,0 h-14 a0,0 0 0 1 -0,-0 v-14 a0,0 0 0 1 0,-0 z"/><path class="st0" d="M339 280 h-3 v3 c0 -1 1 -3 3 -3 z"/>
<path class="st0" d="M322 283 V280 h-3 c1 0 3 1 3 3z"/>

<path class="st0" d="M336,266 h14 a0,0 0 0 1 0,0 v14 a0,0 0 0 1 -0,0 h-14 a0,0 0 0 1 -0,-0 v-14 a0,0 0 0 1 0,-0 z"/><path class="st0" d="M353 280 h-3 v3 c0 -1 1 -3 3 -3 z"/>
<path class="st0" d="M336 283 V280 h-3 c1 0 3 1 3 3z"/>
<path class="st0" d="M333 266c1 0 3-1 3-3v3h-3z"/>

<path class="st0" d="M350,266 h14 a0,0 0 0 1 0,0 v14 a0,0 0 0 1 -0,0 h-14 a0,0 0 0 1 -0,-0 v-14 a0,0 0 0 1 0,-0 z"/>
<path class="st0" d="M364,266 h14 a0,0 0 0 1 0,0 v11 a3,3 0 0 1 -3,3 h-11 a0,0 0 0 1 -0,-0 v-14 a0,0 0 0 1 0,-0 z"/><path class="st0" d="M361 266c1 0 3-1 3-3v3h-3z"/>

<path class="st0" d="M406,266 h14 a0,0 0 0 1 0,0 v11 a3,3 0 0 1 -3,3 h-8 a3,3 0 0 1 -3,-3 v-11 a0,0 0 0 1 0,-0 z"/>
<path class="st0" d="M434,266 h14 a0,0 0 0 1 0,0 v14 a0,0 0 0 1 -0,0 h-14 a0,0 0 0 1 -0,-0 v-14 a0,0 0 0 1 0,-0 z"/>
<path class="st0" d="M70,280 h14 a0,0 0 0 1 0,0 v14 a0,0 0 0 1 -0,0 h-14 a0,0 0 0 1 -0,-0 v-14 a0,0 0 0 1 0,-0 z"/>
<path class="st0" d="M98,280 h14 a0,0 0 0 1 0,0 v14 a0,0 0 0 1 -0,0 h-14 a0,0 0 0 1 -0,-0 v-11 a3,3 0 0 1 3,-3 z"/><path class="st0" d="M115 294 h-3 v3 c0 -1 1 -3 3 -3 z"/>

<path class="st0" d="M112,280 h14 a0,0 0 0 1 0,0 v11 a3,3 0 0 1 -3,3 h-11 a0,0 0 0 1 -0,-0 v-14 a0,0 0 0 1 0,-0 z"/><path class="st0" d="M109 280c1 0 3-1 3-3v3h-3z"/>

<path class="st0" d="M140,280 h14 a0,0 0 0 1 0,0 v14 a0,0 0 0 1 -0,0 h-11 a3,3 0 0 1 -3,-3 v-8 a3,3 0 0 1 3,-3 z"/>
<path class="st0" d="M154,280 h14 a0,0 0 0 1 0,0 v11 a3,3 0 0 1 -3,3 h-11 a0,0 0 0 1 -0,-0 v-14 a0,0 0 0 1 0,-0 z"/><path class="st0" d="M151 280c1 0 3-1 3-3v3h-3z"/>

<path class="st0" d="M182,280 h14 a0,0 0 0 1 0,0 v14 a0,0 0 0 1 -0,0 h-14 a0,0 0 0 1 -0,-0 v-11 a3,3 0 0 1 3,-3 z"/><path class="st0" d="M199 294 h-3 v3 c0 -1 1 -3 3 -3 z"/>

<path class="st0" d="M196,280 h11 a3,3 0 0 1 3,3 v8 a3,3 0 0 1 -3,3 h-11 a0,0 0 0 1 -0,-0 v-14 a0,0 0 0 1 0,-0 z"/>
<path class="st0" d="M224,280 h14 a0,0 0 0 1 0,0 v14 a0,0 0 0 1 -0,0 h-11 a3,3 0 0 1 -3,-3 v-8 a3,3 0 0 1 3,-3 z"/>
<path class="st0" d="M238,280 h14 a0,0 0 0 1 0,0 v14 a0,0 0 0 1 -0,0 h-14 a0,0 0 0 1 -0,-0 v-14 a0,0 0 0 1 0,-0 z"/><path class="st0" d="M255 280c-1 0 -3 -1 -3 -3 v3 h3 z"/>
<path class="st0" d="M235 280c1 0 3-1 3-3v3h-3z"/>

<path class="st0" d="M252,280 h14 a0,0 0 0 1 0,0 v14 a0,0 0 0 1 -0,0 h-14 a0,0 0 0 1 -0,-0 v-14 a0,0 0 0 1 0,-0 z"/><path class="st0" d="M269 280c-1 0 -3 -1 -3 -3 v3 h3 z"/>
<path class="st0" d="M249 280c1 0 3-1 3-3v3h-3z"/>

<path class="st0" d="M266,280 h14 a0,0 0 0 1 0,0 v11 a3,3 0 0 1 -3,3 h-11 a0,0 0 0 1 -0,-0 v-14 a0,0 0 0 1 0,-0 z"/><path class="st0" d="M263 280c1 0 3-1 3-3v3h-3z"/>

<path class="st0" d="M294,280 h14 a0,0 0 0 1 0,0 v11 a3,3 0 0 1 -3,3 h-8 a3,3 0 0 1 -3,-3 v-11 a0,0 0 0 1 0,-0 z"/>
<path class="st0" d="M322,280 h14 a0,0 0 0 1 0,0 v14 a0,0 0 0 1 -0,0 h-11 a3,3 0 0 1 -3,-3 v-11 a0,0 0 0 1 0,-0 z"/><path class="st0" d="M339 280c-1 0 -3 -1 -3 -3 v3 h3 z"/>

<path class="st0" d="M336,280 h14 a0,0 0 0 1 0,0 v11 a3,3 0 0 1 -3,3 h-11 a0,0 0 0 1 -0,-0 v-14 a0,0 0 0 1 0,-0 z"/><path class="st0" d="M333 280c1 0 3-1 3-3v3h-3z"/>

<path class="st0" d="M378,280 h11 a3,3 0 0 1 3,3 v11 a0,0 0 0 1 -0,0 h-14 a0,0 0 0 1 -0,-0 v-11 a3,3 0 0 1 3,-3 z"/>
<path class="st0" d="M434,280 h14 a0,0 0 0 1 0,0 v11 a3,3 0 0 1 -3,3 h-8 a3,3 0 0 1 -3,-3 v-11 a0,0 0 0 1 0,-0 z"/>
<path class="st0" d="M70,294 h14 a0,0 0 0 1 0,0 v11 a3,3 0 0 1 -3,3 h-8 a3,3 0 0 1 -3,-3 v-11 a0,0 0 0 1 0,-0 z"/>
<path class="st0" d="M98,294 h14 a0,0 0 0 1 0,0 v11 a3,3 0 0 1 -3,3 h-8 a3,3 0 0 1 -3,-3 v-11 a0,0 0 0 1 0,-0 z"/>
<path class="st0" d="M126,294 h11 a3,3 0 0 1 3,3 v8 a3,3 0 0 1 -3,3 h-8 a3,3 0 0 1 -3,-3 v-8 a3,3 0 0 1 3,-3 z"/>
<path class="st0" d="M168,294 h14 a0,0 0 0 1 0,0 v14 a0,0 0 0 1 -0,0 h-11 a3,3 0 0 1 -3,-3 v-8 a3,3 0 0 1 3,-3 z"/>
<path class="st0" d="M182,294 h14 a0,0 0 0 1 0,0 v11 a3,3 0 0 1 -3,3 h-11 a0,0 0 0 1 -0,-0 v-14 a0,0 0 0 1 0,-0 z"/><path class="st0" d="M179 294c1 0 3-1 3-3v3h-3z"/>

<path class="st0" d="M280,294 h11 a3,3 0 0 1 3,3 v8 a3,3 0 0 1 -3,3 h-8 a3,3 0 0 1 -3,-3 v-8 a3,3 0 0 1 3,-3 z"/>
<path class="st0" d="M308,294 h11 a3,3 0 0 1 3,3 v8 a3,3 0 0 1 -3,3 h-8 a3,3 0 0 1 -3,-3 v-8 a3,3 0 0 1 3,-3 z"/>
<path class="st0" d="M350,294 h14 a0,0 0 0 1 0,0 v14 a0,0 0 0 1 -0,0 h-14 a0,0 0 0 1 -0,-0 v-11 a3,3 0 0 1 3,-3 z"/><path class="st0" d="M367 308 h-3 v3 c0 -1 1 -3 3 -3 z"/>

<path class="st0" d="M364,294 h14 a0,0 0 0 1 0,0 v14 a0,0 0 0 1 -0,0 h-14 a0,0 0 0 1 -0,-0 v-14 a0,0 0 0 1 0,-0 z"/>
<path class="st0" d="M378,294 h14 a0,0 0 0 1 0,0 v14 a0,0 0 0 1 -0,0 h-14 a0,0 0 0 1 -0,-0 v-14 a0,0 0 0 1 0,-0 z"/><path class="st0" d="M378 311 V308 h-3 c1 0 3 1 3 3z"/>
<path class="st0" d="M375 294c1 0 3-1 3-3v3h-3z"/>

<path class="st0" d="M406,294 h11 a3,3 0 0 1 3,3 v8 a3,3 0 0 1 -3,3 h-8 a3,3 0 0 1 -3,-3 v-8 a3,3 0 0 1 3,-3 z"/>
<path class="st0" d="M448,294 h11 a3,3 0 0 1 3,3 v11 a0,0 0 0 1 -0,0 h-14 a0,0 0 0 1 -0,-0 v-11 a3,3 0 0 1 3,-3 z"/>
<path class="st0" d="M56,308 h11 a3,3 0 0 1 3,3 v8 a3,3 0 0 1 -3,3 h-8 a3,3 0 0 1 -3,-3 v-8 a3,3 0 0 1 3,-3 z"/>
<path class="st0" d="M84,308 h11 a3,3 0 0 1 3,3 v8 a3,3 0 0 1 -3,3 h-8 a3,3 0 0 1 -3,-3 v-8 a3,3 0 0 1 3,-3 z"/>
<path class="st0" d="M112,308 h11 a3,3 0 0 1 3,3 v8 a3,3 0 0 1 -3,3 h-8 a3,3 0 0 1 -3,-3 v-8 a3,3 0 0 1 3,-3 z"/>
<path class="st0" d="M140,308 h14 a0,0 0 0 1 0,0 v14 a0,0 0 0 1 -0,0 h-11 a3,3 0 0 1 -3,-3 v-8 a3,3 0 0 1 3,-3 z"/>
<path class="st0" d="M154,308 h11 a3,3 0 0 1 3,3 v11 a0,0 0 0 1 -0,0 h-14 a0,0 0 0 1 -0,-0 v-14 a0,0 0 0 1 0,-0 z"/><path class="st0" d="M154 325 V322 h-3 c1 0 3 1 3 3z"/>

<path class="st0" d="M196,308 h11 a3,3 0 0 1 3,3 v11 a0,0 0 0 1 -0,0 h-14 a0,0 0 0 1 -0,-0 v-11 a3,3 0 0 1 3,-3 z"/>
<path class="st0" d="M238,308 h11 a3,3 0 0 1 3,3 v11 a0,0 0 0 1 -0,0 h-14 a0,0 0 0 1 -0,-0 v-11 a3,3 0 0 1 3,-3 z"/>
<path class="st0" d="M336,308 h14 a0,0 0 0 1 0,0 v14 a0,0 0 0 1 -0,0 h-14 a0,0 0 0 1 -0,-0 v-11 a3,3 0 0 1 3,-3 z"/><path class="st0" d="M353 322 h-3 v3 c0 -1 1 -3 3 -3 z"/>

<path class="st0" d="M350,308 h14 a0,0 0 0 1 0,0 v11 a3,3 0 0 1 -3,3 h-11 a0,0 0 0 1 -0,-0 v-14 a0,0 0 0 1 0,-0 z"/><path class="st0" d="M347 308c1 0 3-1 3-3v3h-3z"/>

<path class="st0" d="M378,308 h14 a0,0 0 0 1 0,0 v11 a3,3 0 0 1 -3,3 h-8 a3,3 0 0 1 -3,-3 v-11 a0,0 0 0 1 0,-0 z"/>
<path class="st0" d="M434,308 h14 a0,0 0 0 1 0,0 v14 a0,0 0 0 1 -0,0 h-14 a0,0 0 0 1 -0,-0 v-11 a3,3 0 0 1 3,-3 z"/><path class="st0" d="M451 322 h-3 v3 c0 -1 1 -3 3 -3 z"/>

<path class="st0" d="M448,308 h14 a0,0 0 0 1 0,0 v14 a0,0 0 0 1 -0,0 h-14 a0,0 0 0 1 -0,-0 v-14 a0,0 0 0 1 0,-0 z"/><path class="st0" d="M448 325 V322 h-3 c1 0 3 1 3 3z"/>
<path class="st0" d="M445 308c1 0 3-1 3-3v3h-3z"/>

<path class="st0" d="M126,322 h11 a3,3 0 0 1 3,3 v8 a3,3 0 0 1 -3,3 h-8 a3,3 0 0 1 -3,-3 v-8 a3,3 0 0 1 3,-3 z"/>
<path class="st0" d="M154,322 h14 a0,0 0 0 1 0,0 v14 a0,0 0 0 1 -0,0 h-11 a3,3 0 0 1 -3,-3 v-11 a0,0 0 0 1 0,-0 z"/><path class="st0" d="M171 322c-1 0 -3 -1 -3 -3 v3 h3 z"/>

<path class="st0" d="M168,322 h14 a0,0 0 0 1 0,0 v14 a0,0 0 0 1 -0,0 h-14 a0,0 0 0 1 -0,-0 v-14 a0,0 0 0 1 0,-0 z"/>
<path class="st0" d="M182,322 h14 a0,0 0 0 1 0,0 v14 a0,0 0 0 1 -0,0 h-14 a0,0 0 0 1 -0,-0 v-14 a0,0 0 0 1 0,-0 z"/><path class="st0" d="M199 336 h-3 v3 c0 -1 1 -3 3 -3 z"/>
<path class="st0" d="M182 339 V336 h-3 c1 0 3 1 3 3z"/>

<path class="st0" d="M196,322 h14 a0,0 0 0 1 0,0 v14 a0,0 0 0 1 -0,0 h-14 a0,0 0 0 1 -0,-0 v-14 a0,0 0 0 1 0,-0 z"/><path class="st0" d="M213 336 h-3 v3 c0 -1 1 -3 3 -3 z"/>
<path class="st0" d="M196 339 V336 h-3 c1 0 3 1 3 3z"/>

<path class="st0" d="M210,322 h11 a3,3 0 0 1 3,3 v11 a0,0 0 0 1 -0,0 h-14 a0,0 0 0 1 -0,-0 v-14 a0,0 0 0 1 0,-0 z"/><path class="st0" d="M210 339 V336 h-3 c1 0 3 1 3 3z"/>

<path class="st0" d="M238,322 h14 a0,0 0 0 1 0,0 v11 a3,3 0 0 1 -3,3 h-8 a3,3 0 0 1 -3,-3 v-11 a0,0 0 0 1 0,-0 z"/>
<path class="st0" d="M294,322 h11 a3,3 0 0 1 3,3 v8 a3,3 0 0 1 -3,3 h-8 a3,3 0 0 1 -3,-3 v-8 a3,3 0 0 1 3,-3 z"/>
<path class="st0" d="M336,322 h14 a0,0 0 0 1 0,0 v14 a0,0 0 0 1 -0,0 h-14 a0,0 0 0 1 -0,-0 v-14 a0,0 0 0 1 0,-0 z"/>
<path class="st0" d="M364,322 h11 a3,3 0 0 1 3,3 v11 a0,0 0 0 1 -0,0 h-14 a0,0 0 0 1 -0,-0 v-11 a3,3 0 0 1 3,-3 z"/>
<path class="st0" d="M434,322 h14 a0,0 0 0 1 0,0 v14 a0,0 0 0 1 -0,0 h-11 a3,3 0 0 1 -3,-3 v-11 a0,0 0 0 1 0,-0 z"/><path class="st0" d="M451 322c-1 0 -3 -1 -3 -3 v3 h3 z"/>

<path class="st0" d="M448,322 h14 a0,0 0 0 1 0,0 v11 a3,3 0 0 1 -3,3 h-11 a0,0 0 0 1 -0,-0 v-14 a0,0 0 0 1 0,-0 z"/><path class="st0" d="M445 322c1 0 3-1 3-3v3h-3z"/>

<path class="st0" d="M56,336 h11 a3,3 0 0 1 3,3 v8 a3,3 0 0 1 -3,3 h-8 a3,3 0 0 1 -3,-3 v-8 a3,3 0 0 1 3,-3 z"/>
<path class="st0" d="M98,336 h14 a0,0 0 0 1 0,0 v14 a0,0 0 0 1 -0,0 h-11 a3,3 0 0 1 -3,-3 v-8 a3,3 0 0 1 3,-3 z"/>
<path class="st0" d="M112,336 h11 a3,3 0 0 1 3,3 v8 a3,3 0 0 1 -3,3 h-11 a0,0 0 0 1 -0,-0 v-14 a0,0 0 0 1 0,-0 z"/>
<path class="st0" d="M140,336 h11 a3,3 0 0 1 3,3 v8 a3,3 0 0 1 -3,3 h-8 a3,3 0 0 1 -3,-3 v-8 a3,3 0 0 1 3,-3 z"/>
<path class="st0" d="M182,336 h14 a0,0 0 0 1 0,0 v14 a0,0 0 0 1 -0,0 h-14 a0,0 0 0 1 -0,-0 v-14 a0,0 0 0 1 0,-0 z"/><path class="st0" d="M199 336c-1 0 -3 -1 -3 -3 v3 h3 z"/>
<path class="st0" d="M199 350 h-3 v3 c0 -1 1 -3 3 -3 z"/>

<path class="st0" d="M196,336 h14 a0,0 0 0 1 0,0 v14 a0,0 0 0 1 -0,0 h-14 a0,0 0 0 1 -0,-0 v-14 a0,0 0 0 1 0,-0 z"/><path class="st0" d="M193 336c1 0 3-1 3-3v3h-3z"/>

<path class="st0" d="M210,336 h14 a0,0 0 0 1 0,0 v14 a0,0 0 0 1 -0,0 h-14 a0,0 0 0 1 -0,-0 v-14 a0,0 0 0 1 0,-0 z"/><path class="st0" d="M227 336c-1 0 -3 -1 -3 -3 v3 h3 z"/>
<path class="st0" d="M207 336c1 0 3-1 3-3v3h-3z"/>

<path class="st0" d="M224,336 h11 a3,3 0 0 1 3,3 v11 a0,0 0 0 1 -0,0 h-14 a0,0 0 0 1 -0,-0 v-14 a0,0 0 0 1 0,-0 z"/><path class="st0" d="M224 353 V350 h-3 c1 0 3 1 3 3z"/>

<path class="st0" d="M252,336 h14 a0,0 0 0 1 0,0 v14 a0,0 0 0 1 -0,0 h-11 a3,3 0 0 1 -3,-3 v-8 a3,3 0 0 1 3,-3 z"/>
<path class="st0" d="M266,336 h14 a0,0 0 0 1 0,0 v14 a0,0 0 0 1 -0,0 h-14 a0,0 0 0 1 -0,-0 v-14 a0,0 0 0 1 0,-0 z"/>
<path class="st0" d="M280,336 h11 a3,3 0 0 1 3,3 v11 a0,0 0 0 1 -0,0 h-14 a0,0 0 0 1 -0,-0 v-14 a0,0 0 0 1 0,-0 z"/><path class="st0" d="M280 353 V350 h-3 c1 0 3 1 3 3z"/>

<path class="st0" d="M336,336 h14 a0,0 0 0 1 0,0 v14 a0,0 0 0 1 -0,0 h-14 a0,0 0 0 1 -0,-0 v-14 a0,0 0 0 1 0,-0 z"/><path class="st0" d="M353 336c-1 0 -3 -1 -3 -3 v3 h3 z"/>
<path class="st0" d="M353 350 h-3 v3 c0 -1 1 -3 3 -3 z"/>

<path class="st0" d="M350,336 h14 a0,0 0 0 1 0,0 v14 a0,0 0 0 1 -0,0 h-14 a0,0 0 0 1 -0,-0 v-14 a0,0 0 0 1 0,-0 z"/>
<path class="st0" d="M364,336 h14 a0,0 0 0 1 0,0 v14 a0,0 0 0 1 -0,0 h-14 a0,0 0 0 1 -0,-0 v-14 a0,0 0 0 1 0,-0 z"/><path class="st0" d="M381 336c-1 0 -3 -1 -3 -3 v3 h3 z"/>
<path class="st0" d="M361 336c1 0 3-1 3-3v3h-3z"/>

<path class="st0" d="M378,336 h14 a0,0 0 0 1 0,0 v14 a0,0 0 0 1 -0,0 h-14 a0,0 0 0 1 -0,-0 v-14 a0,0 0 0 1 0,-0 z"/>
<path class="st0" d="M392,336 h11 a3,3 0 0 1 3,3 v11 a0,0 0 0 1 -0,0 h-14 a0,0 0 0 1 -0,-0 v-14 a0,0 0 0 1 0,-0 z"/><path class="st0" d="M392 353 V350 h-3 c1 0 3 1 3 3z"/>

<path class="st0" d="M420,336 h11 a3,3 0 0 1 3,3 v11 a0,0 0 0 1 -0,0 h-14 a0,0 0 0 1 -0,-0 v-11 a3,3 0 0 1 3,-3 z"/>
<path class="st0" d="M168,350 h14 a0,0 0 0 1 0,0 v14 a0,0 0 0 1 -0,0 h-11 a3,3 0 0 1 -3,-3 v-8 a3,3 0 0 1 3,-3 z"/>
<path class="st0" d="M182,350 h14 a0,0 0 0 1 0,0 v14 a0,0 0 0 1 -0,0 h-14 a0,0 0 0 1 -0,-0 v-14 a0,0 0 0 1 0,-0 z"/><path class="st0" d="M199 350c-1 0 -3 -1 -3 -3 v3 h3 z"/>
<path class="st0" d="M179 350c1 0 3-1 3-3v3h-3z"/>

<path class="st0" d="M196,350 h14 a0,0 0 0 1 0,0 v14 a0,0 0 0 1 -0,0 h-14 a0,0 0 0 1 -0,-0 v-14 a0,0 0 0 1 0,-0 z"/><path class="st0" d="M196 367 V364 h-3 c1 0 3 1 3 3z"/>
<path class="st0" d="M193 350c1 0 3-1 3-3v3h-3z"/>

<path class="st0" d="M224,350 h14 a0,0 0 0 1 0,0 v14 a0,0 0 0 1 -0,0 h-14 a0,0 0 0 1 -0,-0 v-14 a0,0 0 0 1 0,-0 z"/><path class="st0" d="M241 350c-1 0 -3 -1 -3 -3 v3 h3 z"/>
<path class="st0" d="M241 364 h-3 v3 c0 -1 1 -3 3 -3 z"/>

<path class="st0" d="M238,350 h11 a3,3 0 0 1 3,3 v11 a0,0 0 0 1 -0,0 h-14 a0,0 0 0 1 -0,-0 v-14 a0,0 0 0 1 0,-0 z"/><path class="st0" d="M238 367 V364 h-3 c1 0 3 1 3 3z"/>

<path class="st0" d="M280,350 h14 a0,0 0 0 1 0,0 v14 a0,0 0 0 1 -0,0 h-14 a0,0 0 0 1 -0,-0 v-14 a0,0 0 0 1 0,-0 z"/>
<path class="st0" d="M322,350 h14 a0,0 0 0 1 0,0 v14 a0,0 0 0 1 -0,0 h-11 a3,3 0 0 1 -3,-3 v-8 a3,3 0 0 1 3,-3 z"/>
<path class="st0" d="M336,350 h14 a0,0 0 0 1 0,0 v14 a0,0 0 0 1 -0,0 h-14 a0,0 0 0 1 -0,-0 v-14 a0,0 0 0 1 0,-0 z"/><path class="st0" d="M336 367 V364 h-3 c1 0 3 1 3 3z"/>
<path class="st0" d="M333 350c1 0 3-1 3-3v3h-3z"/>

<path class="st0" d="M392,350 h14 a0,0 0 0 1 0,0 v14 a0,0 0 0 1 -0,0 h-14 a0,0 0 0 1 -0,-0 v-14 a0,0 0 0 1 0,-0 z"/>
<path class="st0" d="M420,350 h14 a0,0 0 0 1 0,0 v14 a0,0 0 0 1 -0,0 h-11 a3,3 0 0 1 -3,-3 v-11 a0,0 0 0 1 0,-0 z"/><path class="st0" d="M437 350c-1 0 -3 -1 -3 -3 v3 h3 z"/>

<path class="st0" d="M434,350 h14 a0,0 0 0 1 0,0 v14 a0,0 0 0 1 -0,0 h-14 a0,0 0 0 1 -0,-0 v-14 a0,0 0 0 1 0,-0 z"/><path class="st0" d="M451 364 h-3 v3 c0 -1 1 -3 3 -3 z"/>
<path class="st0" d="M434 367 V364 h-3 c1 0 3 1 3 3z"/>

<path class="st0" d="M448,350 h11 a3,3 0 0 1 3,3 v8 a3,3 0 0 1 -3,3 h-11 a0,0 0 0 1 -0,-0 v-14 a0,0 0 0 1 0,-0 z"/>
<path class="st0" d="M56,364 h14 a0,0 0 0 1 0,0 v14 a0,0 0 0 1 -0,0 h-14 a0,0 0 0 1 -0,-0 v-11 a3,3 0 0 1 3,-3 z"/><path class="st0" d="M73 378 h-3 v3 c0 -1 1 -3 3 -3 z"/>

<path class="st0" d="M70,364 h14 a0,0 0 0 1 0,0 v14 a0,0 0 0 1 -0,0 h-14 a0,0 0 0 1 -0,-0 v-14 a0,0 0 0 1 0,-0 z"/>
<path class="st0" d="M84,364 h14 a0,0 0 0 1 0,0 v14 a0,0 0 0 1 -0,0 h-14 a0,0 0 0 1 -0,-0 v-14 a0,0 0 0 1 0,-0 z"/>
<path class="st0" d="M98,364 h14 a0,0 0 0 1 0,0 v14 a0,0 0 0 1 -0,0 h-14 a0,0 0 0 1 -0,-0 v-14 a0,0 0 0 1 0,-0 z"/>
<path class="st0" d="M112,364 h14 a0,0 0 0 1 0,0 v14 a0,0 0 0 1 -0,0 h-14 a0,0 0 0 1 -0,-0 v-14 a0,0 0 0 1 0,-0 z"/>
<path class="st0" d="M126,364 h14 a0,0 0 0 1 0,0 v14 a0,0 0 0 1 -0,0 h-14 a0,0 0 0 1 -0,-0 v-14 a0,0 0 0 1 0,-0 z"/>
<path class="st0" d="M140,364 h11 a3,3 0 0 1 3,3 v11 a0,0 0 0 1 -0,0 h-14 a0,0 0 0 1 -0,-0 v-14 a0,0 0 0 1 0,-0 z"/><path class="st0" d="M140 381 V378 h-3 c1 0 3 1 3 3z"/>

<path class="st0" d="M196,364 h14 a0,0 0 0 1 0,0 v11 a3,3 0 0 1 -3,3 h-8 a3,3 0 0 1 -3,-3 v-11 a0,0 0 0 1 0,-0 z"/>
<path class="st0" d="M224,364 h14 a0,0 0 0 1 0,0 v14 a0,0 0 0 1 -0,0 h-14 a0,0 0 0 1 -0,-0 v-14 a0,0 0 0 1 0,-0 z"/><path class="st0" d="M241 364c-1 0 -3 -1 -3 -3 v3 h3 z"/>
<path class="st0" d="M241 378 h-3 v3 c0 -1 1 -3 3 -3 z"/>

<path class="st0" d="M238,364 h14 a0,0 0 0 1 0,0 v14 a0,0 0 0 1 -0,0 h-14 a0,0 0 0 1 -0,-0 v-14 a0,0 0 0 1 0,-0 z"/><path class="st0" d="M238 381 V378 h-3 c1 0 3 1 3 3z"/>
<path class="st0" d="M235 364c1 0 3-1 3-3v3h-3z"/>

<path class="st0" d="M252,364 h11 a3,3 0 0 1 3,3 v8 a3,3 0 0 1 -3,3 h-11 a0,0 0 0 1 -0,-0 v-14 a0,0 0 0 1 0,-0 z"/>
<path class="st0" d="M280,364 h14 a0,0 0 0 1 0,0 v14 a0,0 0 0 1 -0,0 h-11 a3,3 0 0 1 -3,-3 v-11 a0,0 0 0 1 0,-0 z"/><path class="st0" d="M297 364c-1 0 -3 -1 -3 -3 v3 h3 z"/>

<path class="st0" d="M294,364 h11 a3,3 0 0 1 3,3 v8 a3,3 0 0 1 -3,3 h-11 a0,0 0 0 1 -0,-0 v-14 a0,0 0 0 1 0,-0 z"/>
<path class="st0" d="M336,364 h14 a0,0 0 0 1 0,0 v14 a0,0 0 0 1 -0,0 h-14 a0,0 0 0 1 -0,-0 v-14 a0,0 0 0 1 0,-0 z"/>
<path class="st0" d="M364,364 h11 a3,3 0 0 1 3,3 v8 a3,3 0 0 1 -3,3 h-8 a3,3 0 0 1 -3,-3 v-8 a3,3 0 0 1 3,-3 z"/>
<path class="st0" d="M392,364 h14 a0,0 0 0 1 0,0 v14 a0,0 0 0 1 -0,0 h-14 a0,0 0 0 1 -0,-0 v-14 a0,0 0 0 1 0,-0 z"/>
<path class="st0" d="M434,364 h14 a0,0 0 0 1 0,0 v14 a0,0 0 0 1 -0,0 h-14 a0,0 0 0 1 -0,-0 v-14 a0,0 0 0 1 0,-0 z"/>
<path class="st0" d="M56,378 h14 a0,0 0 0 1 0,0 v14 a0,0 0 0 1 -0,0 h-14 a0,0 0 0 1 -0,-0 v-14 a0,0 0 0 1 0,-0 z"/>
<path class="st0" d="M140,378 h14 a0,0 0 0 1 0,0 v14 a0,0 0 0 1 -0,0 h-14 a0,0 0 0 1 -0,-0 v-14 a0,0 0 0 1 0,-0 z"/>
<path class="st0" d="M168,378 h14 a0,0 0 0 1 0,0 v14 a0,0 0 0 1 -0,0 h-11 a3,3 0 0 1 -3,-3 v-8 a3,3 0 0 1 3,-3 z"/>
<path class="st0" d="M182,378 h11 a3,3 0 0 1 3,3 v8 a3,3 0 0 1 -3,3 h-11 a0,0 0 0 1 -0,-0 v-14 a0,0 0 0 1 0,-0 z"/>
<path class="st0" d="M210,378 h14 a0,0 0 0 1 0,0 v14 a0,0 0 0 1 -0,0 h-14 a0,0 0 0 1 -0,-0 v-11 a3,3 0 0 1 3,-3 z"/><path class="st0" d="M227 392 h-3 v3 c0 -1 1 -3 3 -3 z"/>

<path class="st0" d="M224,378 h14 a0,0 0 0 1 0,0 v14 a0,0 0 0 1 -0,0 h-14 a0,0 0 0 1 -0,-0 v-14 a0,0 0 0 1 0,-0 z"/><path class="st0" d="M241 378c-1 0 -3 -1 -3 -3 v3 h3 z"/>
<path class="st0" d="M221 378c1 0 3-1 3-3v3h-3z"/>

<path class="st0" d="M238,378 h14 a0,0 0 0 1 0,0 v11 a3,3 0 0 1 -3,3 h-11 a0,0 0 0 1 -0,-0 v-14 a0,0 0 0 1 0,-0 z"/><path class="st0" d="M235 378c1 0 3-1 3-3v3h-3z"/>

<path class="st0" d="M308,378 h11 a3,3 0 0 1 3,3 v8 a3,3 0 0 1 -3,3 h-8 a3,3 0 0 1 -3,-3 v-8 a3,3 0 0 1 3,-3 z"/>
<path class="st0" d="M336,378 h14 a0,0 0 0 1 0,0 v14 a0,0 0 0 1 -0,0 h-14 a0,0 0 0 1 -0,-0 v-14 a0,0 0 0 1 0,-0 z"/>
<path class="st0" d="M392,378 h14 a0,0 0 0 1 0,0 v14 a0,0 0 0 1 -0,0 h-14 a0,0 0 0 1 -0,-0 v-14 a0,0 0 0 1 0,-0 z"/><path class="st0" d="M409 378c-1 0 -3 -1 -3 -3 v3 h3 z"/>
<path class="st0" d="M409 392 h-3 v3 c0 -1 1 -3 3 -3 z"/>

<path class="st0" d="M406,378 h14 a0,0 0 0 1 0,0 v14 a0,0 0 0 1 -0,0 h-14 a0,0 0 0 1 -0,-0 v-14 a0,0 0 0 1 0,-0 z"/>
<path class="st0" d="M420,378 h14 a0,0 0 0 1 0,0 v14 a0,0 0 0 1 -0,0 h-14 a0,0 0 0 1 -0,-0 v-14 a0,0 0 0 1 0,-0 z"/>
<path class="st0" d="M434,378 h14 a0,0 0 0 1 0,0 v14 a0,0 0 0 1 -0,0 h-14 a0,0 0 0 1 -0,-0 v-14 a0,0 0 0 1 0,-0 z"/><path class="st0" d="M451 378c-1 0 -3 -1 -3 -3 v3 h3 z"/>
<path class="st0" d="M431 378c1 0 3-1 3-3v3h-3z"/>

<path class="st0" d="M448,378 h11 a3,3 0 0 1 3,3 v11 a0,0 0 0 1 -0,0 h-14 a0,0 0 0 1 -0,-0 v-14 a0,0 0 0 1 0,-0 z"/><path class="st0" d="M448 395 V392 h-3 c1 0 3 1 3 3z"/>

<path class="st0" d="M56,392 h14 a0,0 0 0 1 0,0 v14 a0,0 0 0 1 -0,0 h-14 a0,0 0 0 1 -0,-0 v-14 a0,0 0 0 1 0,-0 z"/>
<path class="st0" d="M84,392 h14 a0,0 0 0 1 0,0 v14 a0,0 0 0 1 -0,0 h-14 a0,0 0 0 1 -0,-0 v-11 a3,3 0 0 1 3,-3 z"/><path class="st0" d="M101 406 h-3 v3 c0 -1 1 -3 3 -3 z"/>

<path class="st0" d="M98,392 h14 a0,0 0 0 1 0,0 v14 a0,0 0 0 1 -0,0 h-14 a0,0 0 0 1 -0,-0 v-14 a0,0 0 0 1 0,-0 z"/><path class="st0" d="M115 406 h-3 v3 c0 -1 1 -3 3 -3 z"/>
<path class="st0" d="M98 409 V406 h-3 c1 0 3 1 3 3z"/>

<path class="st0" d="M112,392 h11 a3,3 0 0 1 3,3 v11 a0,0 0 0 1 -0,0 h-14 a0,0 0 0 1 -0,-0 v-14 a0,0 0 0 1 0,-0 z"/><path class="st0" d="M112 409 V406 h-3 c1 0 3 1 3 3z"/>

<path class="st0" d="M140,392 h14 a0,0 0 0 1 0,0 v14 a0,0 0 0 1 -0,0 h-14 a0,0 0 0 1 -0,-0 v-14 a0,0 0 0 1 0,-0 z"/>
<path class="st0" d="M210,392 h14 a0,0 0 0 1 0,0 v11 a3,3 0 0 1 -3,3 h-8 a3,3 0 0 1 -3,-3 v-11 a0,0 0 0 1 0,-0 z"/>
<path class="st0" d="M252,392 h11 a3,3 0 0 1 3,3 v11 a0,0 0 0 1 -0,0 h-14 a0,0 0 0 1 -0,-0 v-11 a3,3 0 0 1 3,-3 z"/>
<path class="st0" d="M280,392 h14 a0,0 0 0 1 0,0 v14 a0,0 0 0 1 -0,0 h-11 a3,3 0 0 1 -3,-3 v-8 a3,3 0 0 1 3,-3 z"/>
<path class="st0" d="M294,392 h11 a3,3 0 0 1 3,3 v11 a0,0 0 0 1 -0,0 h-14 a0,0 0 0 1 -0,-0 v-14 a0,0 0 0 1 0,-0 z"/><path class="st0" d="M294 409 V406 h-3 c1 0 3 1 3 3z"/>

<path class="st0" d="M336,392 h14 a0,0 0 0 1 0,0 v14 a0,0 0 0 1 -0,0 h-14 a0,0 0 0 1 -0,-0 v-14 a0,0 0 0 1 0,-0 z"/><path class="st0" d="M353 392c-1 0 -3 -1 -3 -3 v3 h3 z"/>
<path class="st0" d="M353 406 h-3 v3 c0 -1 1 -3 3 -3 z"/>

<path class="st0" d="M350,392 h14 a0,0 0 0 1 0,0 v14 a0,0 0 0 1 -0,0 h-14 a0,0 0 0 1 -0,-0 v-14 a0,0 0 0 1 0,-0 z"/>
<path class="st0" d="M364,392 h14 a0,0 0 0 1 0,0 v14 a0,0 0 0 1 -0,0 h-14 a0,0 0 0 1 -0,-0 v-14 a0,0 0 0 1 0,-0 z"/><path class="st0" d="M381 406 h-3 v3 c0 -1 1 -3 3 -3 z"/>
<path class="st0" d="M364 409 V406 h-3 c1 0 3 1 3 3z"/>

<path class="st0" d="M378,392 h14 a0,0 0 0 1 0,0 v14 a0,0 0 0 1 -0,0 h-14 a0,0 0 0 1 -0,-0 v-14 a0,0 0 0 1 0,-0 z"/>
<path class="st0" d="M392,392 h14 a0,0 0 0 1 0,0 v14 a0,0 0 0 1 -0,0 h-14 a0,0 0 0 1 -0,-0 v-14 a0,0 0 0 1 0,-0 z"/><path class="st0" d="M392 409 V406 h-3 c1 0 3 1 3 3z"/>
<path class="st0" d="M389 392c1 0 3-1 3-3v3h-3z"/>

<path class="st0" d="M448,392 h14 a0,0 0 0 1 0,0 v11 a3,3 0 0 1 -3,3 h-8 a3,3 0 0 1 -3,-3 v-11 a0,0 0 0 1 0,-0 z"/>
<path class="st0" d="M56,406 h14 a0,0 0 0 1 0,0 v14 a0,0 0 0 1 -0,0 h-14 a0,0 0 0 1 -0,-0 v-14 a0,0 0 0 1 0,-0 z"/>
<path class="st0" d="M84,406 h14 a0,0 0 0 1 0,0 v14 a0,0 0 0 1 -0,0 h-14 a0,0 0 0 1 -0,-0 v-14 a0,0 0 0 1 0,-0 z"/><path class="st0" d="M101 406c-1 0 -3 -1 -3 -3 v3 h3 z"/>
<path class="st0" d="M101 420 h-3 v3 c0 -1 1 -3 3 -3 z"/>

<path class="st0" d="M98,406 h14 a0,0 0 0 1 0,0 v14 a0,0 0 0 1 -0,0 h-14 a0,0 0 0 1 -0,-0 v-14 a0,0 0 0 1 0,-0 z"/>
<path class="st0" d="M112,406 h14 a0,0 0 0 1 0,0 v14 a0,0 0 0 1 -0,0 h-14 a0,0 0 0 1 -0,-0 v-14 a0,0 0 0 1 0,-0 z"/><path class="st0" d="M112 423 V420 h-3 c1 0 3 1 3 3z"/>
<path class="st0" d="M109 406c1 0 3-1 3-3v3h-3z"/>

<path class="st0" d="M140,406 h14 a0,0 0 0 1 0,0 v14 a0,0 0 0 1 -0,0 h-14 a0,0 0 0 1 -0,-0 v-14 a0,0 0 0 1 0,-0 z"/>
<path class="st0" d="M168,406 h11 a3,3 0 0 1 3,3 v8 a3,3 0 0 1 -3,3 h-8 a3,3 0 0 1 -3,-3 v-8 a3,3 0 0 1 3,-3 z"/>
<path class="st0" d="M224,406 h14 a0,0 0 0 1 0,0 v14 a0,0 0 0 1 -0,0 h-11 a3,3 0 0 1 -3,-3 v-8 a3,3 0 0 1 3,-3 z"/>
<path class="st0" d="M238,406 h14 a0,0 0 0 1 0,0 v14 a0,0 0 0 1 -0,0 h-14 a0,0 0 0 1 -0,-0 v-14 a0,0 0 0 1 0,-0 z"/><path class="st0" d="M255 420 h-3 v3 c0 -1 1 -3 3 -3 z"/>
<path class="st0" d="M238 423 V420 h-3 c1 0 3 1 3 3z"/>

<path class="st0" d="M252,406 h14 a0,0 0 0 1 0,0 v11 a3,3 0 0 1 -3,3 h-11 a0,0 0 0 1 -0,-0 v-14 a0,0 0 0 1 0,-0 z"/><path class="st0" d="M249 406c1 0 3-1 3-3v3h-3z"/>

<path class="st0" d="M294,406 h14 a0,0 0 0 1 0,0 v14 a0,0 0 0 1 -0,0 h-11 a3,3 0 0 1 -3,-3 v-11 a0,0 0 0 1 0,-0 z"/><path class="st0" d="M311 406c-1 0 -3 -1 -3 -3 v3 h3 z"/>

<path class="st0" d="M308,406 h14 a0,0 0 0 1 0,0 v14 a0,0 0 0 1 -0,0 h-14 a0,0 0 0 1 -0,-0 v-14 a0,0 0 0 1 0,-0 z"/><path class="st0" d="M325 420 h-3 v3 c0 -1 1 -3 3 -3 z"/>
<path class="st0" d="M308 423 V420 h-3 c1 0 3 1 3 3z"/>

<path class="st0" d="M322,406 h14 a0,0 0 0 1 0,0 v14 a0,0 0 0 1 -0,0 h-14 a0,0 0 0 1 -0,-0 v-14 a0,0 0 0 1 0,-0 z"/><path class="st0" d="M339 420 h-3 v3 c0 -1 1 -3 3 -3 z"/>
<path class="st0" d="M322 423 V420 h-3 c1 0 3 1 3 3z"/>

<path class="st0" d="M336,406 h14 a0,0 0 0 1 0,0 v14 a0,0 0 0 1 -0,0 h-14 a0,0 0 0 1 -0,-0 v-14 a0,0 0 0 1 0,-0 z"/><path class="st0" d="M336 423 V420 h-3 c1 0 3 1 3 3z"/>
<path class="st0" d="M333 406c1 0 3-1 3-3v3h-3z"/>

<path class="st0" d="M364,406 h14 a0,0 0 0 1 0,0 v11 a3,3 0 0 1 -3,3 h-8 a3,3 0 0 1 -3,-3 v-11 a0,0 0 0 1 0,-0 z"/>
<path class="st0" d="M392,406 h14 a0,0 0 0 1 0,0 v14 a0,0 0 0 1 -0,0 h-14 a0,0 0 0 1 -0,-0 v-14 a0,0 0 0 1 0,-0 z"/><path class="st0" d="M409 406c-1 0 -3 -1 -3 -3 v3 h3 z"/>
<path class="st0" d="M409 420 h-3 v3 c0 -1 1 -3 3 -3 z"/>

<path class="st0" d="M406,406 h14 a0,0 0 0 1 0,0 v14 a0,0 0 0 1 -0,0 h-14 a0,0 0 0 1 -0,-0 v-14 a0,0 0 0 1 0,-0 z"/><path class="st0" d="M423 420 h-3 v3 c0 -1 1 -3 3 -3 z"/>
<path class="st0" d="M406 423 V420 h-3 c1 0 3 1 3 3z"/>

<path class="st0" d="M420,406 h14 a0,0 0 0 1 0,0 v14 a0,0 0 0 1 -0,0 h-14 a0,0 0 0 1 -0,-0 v-14 a0,0 0 0 1 0,-0 z"/><path class="st0" d="M437 420 h-3 v3 c0 -1 1 -3 3 -3 z"/>
<path class="st0" d="M420 423 V420 h-3 c1 0 3 1 3 3z"/>

<path class="st0" d="M434,406 h11 a3,3 0 0 1 3,3 v8 a3,3 0 0 1 -3,3 h-11 a0,0 0 0 1 -0,-0 v-14 a0,0 0 0 1 0,-0 z"/>
<path class="st0" d="M56,420 h14 a0,0 0 0 1 0,0 v14 a0,0 0 0 1 -0,0 h-14 a0,0 0 0 1 -0,-0 v-14 a0,0 0 0 1 0,-0 z"/>
<path class="st0" d="M84,420 h14 a0,0 0 0 1 0,0 v14 a0,0 0 0 1 -0,0 h-11 a3,3 0 0 1 -3,-3 v-11 a0,0 0 0 1 0,-0 z"/><path class="st0" d="M101 420c-1 0 -3 -1 -3 -3 v3 h3 z"/>

<path class="st0" d="M98,420 h14 a0,0 0 0 1 0,0 v14 a0,0 0 0 1 -0,0 h-14 a0,0 0 0 1 -0,-0 v-14 a0,0 0 0 1 0,-0 z"/><path class="st0" d="M115 420c-1 0 -3 -1 -3 -3 v3 h3 z"/>
<path class="st0" d="M95 420c1 0 3-1 3-3v3h-3z"/>

<path class="st0" d="M112,420 h14 a0,0 0 0 1 0,0 v11 a3,3 0 0 1 -3,3 h-11 a0,0 0 0 1 -0,-0 v-14 a0,0 0 0 1 0,-0 z"/><path class="st0" d="M109 420c1 0 3-1 3-3v3h-3z"/>

<path class="st0" d="M140,420 h14 a0,0 0 0 1 0,0 v14 a0,0 0 0 1 -0,0 h-14 a0,0 0 0 1 -0,-0 v-14 a0,0 0 0 1 0,-0 z"/>
<path class="st0" d="M182,420 h14 a0,0 0 0 1 0,0 v14 a0,0 0 0 1 -0,0 h-14 a0,0 0 0 1 -0,-0 v-11 a3,3 0 0 1 3,-3 z"/><path class="st0" d="M199 434 h-3 v3 c0 -1 1 -3 3 -3 z"/>

<path class="st0" d="M196,420 h14 a0,0 0 0 1 0,0 v14 a0,0 0 0 1 -0,0 h-14 a0,0 0 0 1 -0,-0 v-14 a0,0 0 0 1 0,-0 z"/><path class="st0" d="M213 434 h-3 v3 c0 -1 1 -3 3 -3 z"/>
<path class="st0" d="M196 437 V434 h-3 c1 0 3 1 3 3z"/>

<path class="st0" d="M210,420 h11 a3,3 0 0 1 3,3 v8 a3,3 0 0 1 -3,3 h-11 a0,0 0 0 1 -0,-0 v-14 a0,0 0 0 1 0,-0 z"/>
<path class="st0" d="M238,420 h14 a0,0 0 0 1 0,0 v11 a3,3 0 0 1 -3,3 h-8 a3,3 0 0 1 -3,-3 v-11 a0,0 0 0 1 0,-0 z"/>
<path class="st0" d="M280,420 h11 a3,3 0 0 1 3,3 v11 a0,0 0 0 1 -0,0 h-14 a0,0 0 0 1 -0,-0 v-11 a3,3 0 0 1 3,-3 z"/>
<path class="st0" d="M308,420 h14 a0,0 0 0 1 0,0 v14 a0,0 0 0 1 -0,0 h-11 a3,3 0 0 1 -3,-3 v-11 a0,0 0 0 1 0,-0 z"/><path class="st0" d="M325 420c-1 0 -3 -1 -3 -3 v3 h3 z"/>

<path class="st0" d="M322,420 h14 a0,0 0 0 1 0,0 v14 a0,0 0 0 1 -0,0 h-14 a0,0 0 0 1 -0,-0 v-14 a0,0 0 0 1 0,-0 z"/><path class="st0" d="M339 420c-1 0 -3 -1 -3 -3 v3 h3 z"/>

<path class="st0" d="M336,420 h14 a0,0 0 0 1 0,0 v14 a0,0 0 0 1 -0,0 h-14 a0,0 0 0 1 -0,-0 v-14 a0,0 0 0 1 0,-0 z"/><path class="st0" d="M336 437 V434 h-3 c1 0 3 1 3 3z"/>
<path class="st0" d="M333 420c1 0 3-1 3-3v3h-3z"/>

<path class="st0" d="M392,420 h14 a0,0 0 0 1 0,0 v14 a0,0 0 0 1 -0,0 h-14 a0,0 0 0 1 -0,-0 v-14 a0,0 0 0 1 0,-0 z"/><path class="st0" d="M409 420c-1 0 -3 -1 -3 -3 v3 h3 z"/>
<path class="st0" d="M409 434 h-3 v3 c0 -1 1 -3 3 -3 z"/>

<path class="st0" d="M406,420 h14 a0,0 0 0 1 0,0 v14 a0,0 0 0 1 -0,0 h-14 a0,0 0 0 1 -0,-0 v-14 a0,0 0 0 1 0,-0 z"/><path class="st0" d="M423 420c-1 0 -3 -1 -3 -3 v3 h3 z"/>
<path class="st0" d="M403 420c1 0 3-1 3-3v3h-3z"/>

<path class="st0" d="M420,420 h14 a0,0 0 0 1 0,0 v11 a3,3 0 0 1 -3,3 h-11 a0,0 0 0 1 -0,-0 v-14 a0,0 0 0 1 0,-0 z"/><path class="st0" d="M417 420c1 0 3-1 3-3v3h-3z"/>

<path class="st0" d="M448,420 h11 a3,3 0 0 1 3,3 v8 a3,3 0 0 1 -3,3 h-8 a3,3 0 0 1 -3,-3 v-8 a3,3 0 0 1 3,-3 z"/>
<path class="st0" d="M56,434 h14 a0,0 0 0 1 0,0 v14 a0,0 0 0 1 -0,0 h-14 a0,0 0 0 1 -0,-0 v-14 a0,0 0 0 1 0,-0 z"/>
<path class="st0" d="M140,434 h14 a0,0 0 0 1 0,0 v14 a0,0 0 0 1 -0,0 h-14 a0,0 0 0 1 -0,-0 v-14 a0,0 0 0 1 0,-0 z"/>
<path class="st0" d="M182,434 h14 a0,0 0 0 1 0,0 v14 a0,0 0 0 1 -0,0 h-11 a3,3 0 0 1 -3,-3 v-11 a0,0 0 0 1 0,-0 z"/><path class="st0" d="M199 434c-1 0 -3 -1 -3 -3 v3 h3 z"/>

<path class="st0" d="M196,434 h14 a0,0 0 0 1 0,0 v11 a3,3 0 0 1 -3,3 h-11 a0,0 0 0 1 -0,-0 v-14 a0,0 0 0 1 0,-0 z"/><path class="st0" d="M193 434c1 0 3-1 3-3v3h-3z"/>

<path class="st0" d="M252,434 h11 a3,3 0 0 1 3,3 v11 a0,0 0 0 1 -0,0 h-14 a0,0 0 0 1 -0,-0 v-11 a3,3 0 0 1 3,-3 z"/>
<path class="st0" d="M280,434 h14 a0,0 0 0 1 0,0 v14 a0,0 0 0 1 -0,0 h-11 a3,3 0 0 1 -3,-3 v-11 a0,0 0 0 1 0,-0 z"/><path class="st0" d="M297 434c-1 0 -3 -1 -3 -3 v3 h3 z"/>

<path class="st0" d="M294,434 h11 a3,3 0 0 1 3,3 v11 a0,0 0 0 1 -0,0 h-14 a0,0 0 0 1 -0,-0 v-14 a0,0 0 0 1 0,-0 z"/><path class="st0" d="M294 451 V448 h-3 c1 0 3 1 3 3z"/>

<path class="st0" d="M322,434 h14 a0,0 0 0 1 0,0 v14 a0,0 0 0 1 -0,0 h-11 a3,3 0 0 1 -3,-3 v-11 a0,0 0 0 1 0,-0 z"/><path class="st0" d="M339 434c-1 0 -3 -1 -3 -3 v3 h3 z"/>

<path class="st0" d="M336,434 h14 a0,0 0 0 1 0,0 v14 a0,0 0 0 1 -0,0 h-14 a0,0 0 0 1 -0,-0 v-14 a0,0 0 0 1 0,-0 z"/><path class="st0" d="M353 434c-1 0 -3 -1 -3 -3 v3 h3 z"/>
<path class="st0" d="M336 451 V448 h-3 c1 0 3 1 3 3z"/>

<path class="st0" d="M350,434 h11 a3,3 0 0 1 3,3 v11 a0,0 0 0 1 -0,0 h-14 a0,0 0 0 1 -0,-0 v-14 a0,0 0 0 1 0,-0 z"/><path class="st0" d="M350 451 V448 h-3 c1 0 3 1 3 3z"/>

<path class="st0" d="M392,434 h14 a0,0 0 0 1 0,0 v14 a0,0 0 0 1 -0,0 h-14 a0,0 0 0 1 -0,-0 v-14 a0,0 0 0 1 0,-0 z"/>
<path class="st0" d="M434,434 h11 a3,3 0 0 1 3,3 v11 a0,0 0 0 1 -0,0 h-14 a0,0 0 0 1 -0,-0 v-11 a3,3 0 0 1 3,-3 z"/>
<path class="st0" d="M56,448 h14 a0,0 0 0 1 0,0 v14 a0,0 0 0 1 -0,0 h-11 a3,3 0 0 1 -3,-3 v-11 a0,0 0 0 1 0,-0 z"/><path class="st0" d="M73 448c-1 0 -3 -1 -3 -3 v3 h3 z"/>

<path class="st0" d="M70,448 h14 a0,0 0 0 1 0,0 v14 a0,0 0 0 1 -0,0 h-14 a0,0 0 0 1 -0,-0 v-14 a0,0 0 0 1 0,-0 z"/>
<path class="st0" d="M84,448 h14 a0,0 0 0 1 0,0 v14 a0,0 0 0 1 -0,0 h-14 a0,0 0 0 1 -0,-0 v-14 a0,0 0 0 1 0,-0 z"/>
<path class="st0" d="M98,448 h14 a0,0 0 0 1 0,0 v14 a0,0 0 0 1 -0,0 h-14 a0,0 0 0 1 -0,-0 v-14 a0,0 0 0 1 0,-0 z"/>
<path class="st0" d="M112,448 h14 a0,0 0 0 1 0,0 v14 a0,0 0 0 1 -0,0 h-14 a0,0 0 0 1 -0,-0 v-14 a0,0 0 0 1 0,-0 z"/>
<path class="st0" d="M126,448 h14 a0,0 0 0 1 0,0 v14 a0,0 0 0 1 -0,0 h-14 a0,0 0 0 1 -0,-0 v-14 a0,0 0 0 1 0,-0 z"/>
<path class="st0" d="M140,448 h14 a0,0 0 0 1 0,0 v11 a3,3 0 0 1 -3,3 h-11 a0,0 0 0 1 -0,-0 v-14 a0,0 0 0 1 0,-0 z"/><path class="st0" d="M137 448c1 0 3-1 3-3v3h-3z"/>

<path class="st0" d="M168,448 h11 a3,3 0 0 1 3,3 v8 a3,3 0 0 1 -3,3 h-8 a3,3 0 0 1 -3,-3 v-8 a3,3 0 0 1 3,-3 z"/>
<path class="st0" d="M210,448 h11 a3,3 0 0 1 3,3 v8 a3,3 0 0 1 -3,3 h-8 a3,3 0 0 1 -3,-3 v-8 a3,3 0 0 1 3,-3 z"/>
<path class="st0" d="M252,448 h14 a0,0 0 0 1 0,0 v14 a0,0 0 0 1 -0,0 h-11 a3,3 0 0 1 -3,-3 v-11 a0,0 0 0 1 0,-0 z"/><path class="st0" d="M269 448c-1 0 -3 -1 -3 -3 v3 h3 z"/>

<path class="st0" d="M266,448 h11 a3,3 0 0 1 3,3 v8 a3,3 0 0 1 -3,3 h-11 a0,0 0 0 1 -0,-0 v-14 a0,0 0 0 1 0,-0 z"/>
<path class="st0" d="M294,448 h14 a0,0 0 0 1 0,0 v14 a0,0 0 0 1 -0,0 h-11 a3,3 0 0 1 -3,-3 v-11 a0,0 0 0 1 0,-0 z"/><path class="st0" d="M311 448c-1 0 -3 -1 -3 -3 v3 h3 z"/>

<path class="st0" d="M308,448 h11 a3,3 0 0 1 3,3 v8 a3,3 0 0 1 -3,3 h-11 a0,0 0 0 1 -0,-0 v-14 a0,0 0 0 1 0,-0 z"/>
<path class="st0" d="M336,448 h14 a0,0 0 0 1 0,0 v14 a0,0 0 0 1 -0,0 h-11 a3,3 0 0 1 -3,-3 v-11 a0,0 0 0 1 0,-0 z"/><path class="st0" d="M353 448c-1 0 -3 -1 -3 -3 v3 h3 z"/>

<path class="st0" d="M350,448 h14 a0,0 0 0 1 0,0 v14 a0,0 0 0 1 -0,0 h-14 a0,0 0 0 1 -0,-0 v-14 a0,0 0 0 1 0,-0 z"/><path class="st0" d="M367 448c-1 0 -3 -1 -3 -3 v3 h3 z"/>
<path class="st0" d="M347 448c1 0 3-1 3-3v3h-3z"/>

<path class="st0" d="M364,448 h14 a0,0 0 0 1 0,0 v14 a0,0 0 0 1 -0,0 h-14 a0,0 0 0 1 -0,-0 v-14 a0,0 0 0 1 0,-0 z"/>
<path class="st0" d="M378,448 h14 a0,0 0 0 1 0,0 v14 a0,0 0 0 1 -0,0 h-14 a0,0 0 0 1 -0,-0 v-14 a0,0 0 0 1 0,-0 z"/>
<path class="st0" d="M392,448 h14 a0,0 0 0 1 0,0 v11 a3,3 0 0 1 -3,3 h-11 a0,0 0 0 1 -0,-0 v-14 a0,0 0 0 1 0,-0 z"/><path class="st0" d="M389 448c1 0 3-1 3-3v3h-3z"/>

<path class="st0" d="M434,448 h14 a0,0 0 0 1 0,0 v11 a3,3 0 0 1 -3,3 h-8 a3,3 0 0 1 -3,-3 v-11 a0,0 0 0 1 0,-0 z"/>
</svg>