<?xml version="1.0" encoding="utf-8"?>
<svg xmlns="http://www.w3.org/2000/svg" version="1.1" width="518" height="518" viewBox="0 0 518 518" shape-rendering="crispEdges">
<style type="text/css">.st0{fill:#ff0000};.st1{fill:#ffff00};</style>
<rect x="0" y="0" width="518" height="518" fill="#ffff00"/>
<path class="st0" d="M56,56 h6 a4,4 0 0 1 4,4 v6 a4,4 0 0 1 -4,4 h-6 a4,4 0 0 1 -4,-4 v-6 a4,4 0 0 1 4,-4 z"/>
<path class="st0" d="M196,56 h14 a0,0 0 0 1 0,0 v14 a0,0 0 0 1 -0,0 h-14 a0,0 0 0 1 -0,-0 v-14 a0,0 0 0 1 0,-0 z"/>
<path class="st0" d="M280,56 h14 a0,0 0 0 1 0,0 v6 a4,4 0 0 1 -4,4 h-14 a0,0 0 0 1 -0,-0 v-6 a4,4 0 0 1 4,-4 z"/>
<path class="st0" d="M308,56 h6 a4,4 0 0 1 4,4 v6 a4,4 0 0 1 -4,4 h-6 a4,4 0 0 1 -4,-4 v-6 a4,4 0 0 1 4,-4 z"/>
<path class="st0" d="M322,56 h6 a4,4 0 0 1 4,4 v14 a0,0 0 0 1 -0,0 h-6 a4,4 0 0 1 -4,-4 v-14 a0,0 0 0 1 0,-0 z"/>
<path class="st0" d="M364,56 h14 a0,0 0 0 1 0,0 v6 a4,4 0 0 1 -4,4 h-14 a0,0 0 0 1 -0,-0 v-6 a4,4 0 0 1 4,-4 z"/>
<path class="st0" d="M378,56 h6 a4,4 0 0 1 4,4 v6 a4,4 0 0 1 -4,4 h-6 a4,4 0 0 1 -4,-4 v-6 a4,4 0 0 1 4,-4 z"/>
</svg>

